<svg width="45" height="45" viewBox="0 0 45 45" fill="none" xmlns="http://www.w3.org/2000/svg">
<path d="M30.2185 33.3337H11.3479V15.0029H22.6874L24.4029 13.3364H11.3479C10.8929 13.3364 10.4565 13.512 10.1348 13.8245C9.8131 14.137 9.63235 14.5609 9.63235 15.0029V33.3337C9.63235 33.7757 9.8131 34.1996 10.1348 34.5121C10.4565 34.8246 10.8929 35.0002 11.3479 35.0002H30.2185C30.6735 35.0002 31.1098 34.8246 31.4315 34.5121C31.7532 34.1996 31.934 33.7757 31.934 33.3337V20.8354L30.2185 22.5019V33.3337Z" fill="black"/>
<path d="M34.9618 13.2022L32.0712 10.3942C31.9429 10.2693 31.7905 10.1701 31.6227 10.1025C31.4549 10.0348 31.275 10 31.0934 10C30.9117 10 30.7318 10.0348 30.564 10.1025C30.3962 10.1701 30.2438 10.2693 30.1155 10.3942L18.3557 21.8843L17.4036 25.8921C17.363 26.0864 17.3673 26.287 17.4161 26.4795C17.4649 26.672 17.557 26.8515 17.6857 27.0053C17.8145 27.1591 17.9768 27.2832 18.1608 27.3688C18.3449 27.4544 18.5462 27.4993 18.7503 27.5003C18.8557 27.5115 18.9622 27.5115 19.0676 27.5003L23.2277 26.6087L34.9618 15.1019C35.0905 14.9773 35.1925 14.8293 35.2622 14.6663C35.3318 14.5033 35.3677 14.3285 35.3677 14.152C35.3677 13.9756 35.3318 13.8008 35.2622 13.6378C35.1925 13.4748 35.0905 13.3268 34.9618 13.2022ZM22.3357 25.0672L19.1963 25.7422L19.9254 22.7176L28.7774 14.0604L31.1963 16.4101L22.3357 25.0672ZM32.1656 15.4685L29.7467 13.1188L31.0762 11.8024L33.5122 14.1687L32.1656 15.4685Z" fill="black"/>
</svg>
