<svg width="50" height="59" viewBox="0 0 50 59" fill="none" xmlns="http://www.w3.org/2000/svg">
<path d="M0 6.80547C0 5.28989 1.22861 4.06128 2.74419 4.06128H46.6512C48.1667 4.06128 49.3953 5.28989 49.3953 6.80547V50.7673C49.3953 52.2829 48.1667 53.5115 46.6512 53.5115H2.74419C1.22862 53.5115 0 52.2829 0 50.7673V6.80547Z" fill="#5D4038"/>
<path d="M2.79907 28.759H44.0716V50.7674H2.79907V28.759Z" fill="#3E2722"/>
<path d="M2.7442 6.86035H44.0168V26.0697H2.7442V6.86035Z" fill="#3E2722"/>
<path d="M37.9521 22.0633L39.9005 24.4782L40.8884 16.2731C40.7603 14.0503 40.367 9.62116 39.8181 9.68702C39.2693 9.75288 38.9857 10.3365 38.9125 10.62V11.0591C38.8942 11.05 38.7863 11.0262 38.5009 11.0042C38.4735 10.2907 37.8423 9.63214 37.0465 9.6047C36.2507 9.57725 35.9763 10.0986 35.8665 10.2633C35.3835 9.53884 34.6225 9.57725 34.3023 9.68702V9.33028C34.3023 8.91865 33.8358 8.28749 32.8753 8.2326C32.107 8.1887 31.677 8.96439 31.5581 9.35772V10.867C31.0459 10.2267 29.9665 8.88572 29.747 8.64423C29.6646 8.34237 28.567 7.82098 27.7712 8.67168C27.1345 9.35223 27.5425 10.2176 27.826 10.5652L27.4693 10.867C27.2937 9.81326 26.4997 9.58641 26.1246 9.6047C25.3837 9.57726 24.9995 10.1535 24.8623 10.2633C24.4013 9.47298 23.6274 9.54982 23.2981 9.68703C23.3164 9.66873 23.342 9.57177 23.2981 9.33028C23.2432 9.02842 22.9139 8.28749 21.926 8.23261C21.1357 8.1887 20.7003 8.9461 20.5814 9.33028L20.5539 10.867C20.0234 10.181 18.9184 8.76499 18.7428 8.58937C18.5232 8.36983 18.1665 8.04053 17.206 8.36983C16.4377 8.63327 16.4468 9.63216 16.5474 10.0987L16.8218 10.5652C16.7853 10.6109 16.6682 10.7298 16.4925 10.8396C16.1632 9.85169 15.7242 9.6596 15.0656 9.60471C14.5387 9.56081 14.0777 10.0438 13.913 10.2908C13.4739 9.58825 12.669 9.61386 12.3214 9.71448C12.3305 9.63216 12.3433 9.4236 12.3214 9.24797C12.2939 9.02844 11.8274 8.26004 10.8944 8.2326C10.148 8.21065 9.72356 8.97353 9.60464 9.35772L9.54976 10.867C9.0741 10.1627 8.01301 8.69361 7.57394 8.45212C7.02511 8.15026 6.58604 8.15026 5.92743 8.56189C5.40055 8.89119 5.47007 9.72359 5.57069 10.0986L5.84511 10.5926C5.43348 11.0134 4.59925 11.8659 4.55534 11.9098C4.50046 11.9647 4.11627 12.294 4.11627 12.9251C4.11627 13.4301 4.40898 13.8307 4.55534 13.9679L4.3358 14.1875C3.96259 14.7363 4.16201 15.4406 4.30836 15.7242L5.37859 16.5749C5.24139 16.7121 4.86269 17.0853 4.44557 17.4805C3.92418 17.9744 4.17115 18.7428 4.1986 18.9349C3.97906 19.4837 4.19859 19.8679 4.17115 20.0875C3.99552 21.0534 4.53704 21.551 4.82975 21.6791C4.93952 22.0358 5.19748 22.7877 5.35115 22.9414C5.87255 23.6275 6.88789 23.2433 7.05255 23.1335C7.5465 23.4903 8.06789 23.3256 8.23254 23.2433C8.47403 23.4628 8.90031 23.3348 9.08326 23.2433C9.05582 23.8196 9.60466 24.7251 10.5651 24.7251C11.3335 24.7251 11.7817 23.9385 11.9098 23.5451V22.0633C12.3214 22.6213 13.2434 23.8525 13.6386 24.3135C14.1326 24.8898 15.0381 24.7251 15.4223 24.4507C15.7297 24.2312 15.898 23.8836 15.9437 23.7372V23.3256C16.52 23.2982 16.9316 22.9414 17.1512 22.667C17.5244 23.3695 18.3861 23.3439 18.7702 23.2433V23.7372C18.8526 24.0665 19.2367 24.7251 20.1149 24.7251C20.993 24.7251 21.3772 23.9385 21.4595 23.5451V22.0633C22.0084 22.7493 23.1445 24.1598 23.2981 24.3135C23.4902 24.5056 24.286 24.9721 24.9721 24.4782C25.6581 23.9842 25.6033 23.3531 25.4386 22.8042C26.1795 23.6275 26.7832 23.2433 26.9479 23.2433C26.893 23.6 27.2498 24.7251 28.32 24.7251C29.1762 24.7251 29.6098 23.9385 29.7195 23.5451V22.0633L31.4484 24.3135C31.7502 24.5513 32.5131 24.9172 33.1498 24.4782C33.9456 23.9293 33.7809 23.2433 33.6712 22.8042C34.0005 23.397 34.8329 23.3439 35.2079 23.2433V23.5451C35.3177 23.9385 35.7403 24.7251 36.5525 24.7251C37.3648 24.7251 37.824 23.9385 37.9521 23.5451V22.0633Z" fill="#F9F9F9"/>
<path d="M34.2749 9.33034C34.2749 8.93684 33.8236 8.31434 32.8738 8.26006C32.5003 8.23872 32.2081 8.41619 31.9934 8.64982C31.7797 8.88229 31.6447 9.16848 31.5856 9.36197V10.9453L31.5367 10.8842C31.024 10.2434 29.9454 8.90339 29.7266 8.66274L29.7222 8.65786L29.7205 8.65153C29.7118 8.61983 29.6889 8.58254 29.6512 8.54284C29.6137 8.50343 29.563 8.46303 29.5011 8.42498C29.3773 8.34887 29.2109 8.28325 29.0223 8.25293C28.6457 8.19241 28.182 8.27279 27.7912 8.6905C27.4798 9.02335 27.4239 9.40066 27.4806 9.73881C27.5375 10.078 27.7079 10.377 27.8473 10.5479L27.8644 10.5688L27.4502 10.9192L27.4422 10.8716C27.3556 10.3517 27.1171 10.0381 26.8561 9.8564C26.5942 9.67406 26.3081 9.62327 26.126 9.63215L26.1248 9.63226L26.1236 9.63221C25.3962 9.60527 25.0255 10.1679 24.8795 10.2848L24.8546 10.3046L24.8386 10.2772C24.6121 9.88893 24.31 9.7151 24.0251 9.65423C23.739 9.59313 23.4689 9.64569 23.3087 9.71244L23.2787 9.66769C23.2782 9.6682 23.2817 9.66431 23.2856 9.65027C23.2892 9.63722 23.2925 9.61785 23.2941 9.59088C23.2971 9.53696 23.2928 9.45461 23.2711 9.33528C23.2176 9.04099 22.8954 8.314 21.9245 8.26006C21.5395 8.23867 21.2404 8.41212 21.0217 8.63996C20.8041 8.86678 20.6678 9.1461 20.6087 9.33485L20.58 10.9456L20.5322 10.8839C20.267 10.5409 19.8582 10.0155 19.4937 9.55385C19.3115 9.32303 19.1404 9.10823 19.004 8.94021C18.867 8.77159 18.766 8.65148 18.7234 8.60882C18.6142 8.49965 18.4742 8.36677 18.2446 8.3002C18.0149 8.23363 17.6916 8.23245 17.2149 8.39587C16.8427 8.5235 16.6574 8.82905 16.5775 9.16451C16.498 9.49847 16.5243 9.85818 16.5734 10.0887L16.8551 10.5676L16.8433 10.5824C16.8046 10.6307 16.6852 10.7517 16.5071 10.863L16.4775 10.8814L16.4665 10.8483C16.3027 10.357 16.113 10.0678 15.8859 9.89414C15.6589 9.72055 15.3908 9.65944 15.0633 9.63215C14.8089 9.61096 14.5684 9.71687 14.3696 9.86096C14.1708 10.0049 14.0166 10.1849 13.9358 10.306L13.9123 10.3414L13.8897 10.3054C13.6747 9.96136 13.3705 9.79575 13.0767 9.72825C12.7822 9.66059 12.4988 9.69173 12.329 9.7409L12.2896 9.75232L12.2941 9.71153C12.3031 9.6303 12.3157 9.4241 12.2942 9.25145C12.288 9.20215 12.2559 9.11682 12.1945 9.01476C12.1336 8.91349 12.0451 8.79799 11.9287 8.6883C11.6959 8.46903 11.3522 8.2736 10.8936 8.26011C10.5309 8.24945 10.2454 8.42917 10.0345 8.6614C9.82473 8.89248 9.69098 9.17346 9.63192 9.36245L9.57414 10.9522L9.52703 10.8825C9.28945 10.5307 8.90564 9.98785 8.52653 9.50298C8.33695 9.26053 8.14879 9.03289 7.98085 8.85097C7.81214 8.66822 7.66613 8.53421 7.5607 8.47622C7.28904 8.32681 7.04721 8.25356 6.79329 8.26692C6.539 8.2803 6.26914 8.38074 5.94195 8.58523C5.68856 8.74361 5.57642 9.02426 5.54099 9.31646C5.5058 9.60675 5.54717 9.9033 5.59641 10.0884L5.86911 10.5793L5.87903 10.5972L5.86472 10.6119C5.45321 11.0325 4.61878 11.8852 4.57474 11.9293C4.51977 11.9842 4.14371 12.3064 4.14371 12.9252C4.14371 13.4203 4.43139 13.8142 4.57409 13.948L4.59478 13.9674L4.35708 14.205C4.17617 14.4723 4.13347 14.778 4.15459 15.0533C4.17552 15.3261 4.2591 15.567 4.33017 15.7066L5.41975 16.5726L5.39799 16.5944C5.26062 16.7318 4.88174 17.1051 4.46443 17.5005C4.21118 17.7404 4.14371 18.0474 4.14371 18.321C4.14371 18.5965 4.21129 18.8298 4.22576 18.9311L4.22678 18.9384L4.22405 18.9452C4.11649 19.2141 4.11645 19.4424 4.14006 19.6313C4.15195 19.7265 4.16967 19.8107 4.18315 19.8873C4.19641 19.9625 4.20581 20.0315 4.19838 20.0909L4.19816 20.0924C4.03048 21.0147 4.52566 21.4996 4.81357 21.6414L4.84074 21.654L4.85226 21.6591L4.85596 21.6711C4.91071 21.849 5.00244 22.1256 5.09956 22.3766C5.14813 22.5021 5.19793 22.6209 5.24497 22.7176C5.28956 22.8092 5.33031 22.8782 5.3639 22.9151L5.37055 22.9221L5.37189 22.9234L5.37302 22.9249C5.62594 23.2577 5.99909 23.3323 6.33369 23.3086C6.50086 23.2968 6.65731 23.2604 6.78214 23.2202C6.90755 23.1798 6.99918 23.1362 7.03732 23.1108L7.05319 23.1002L7.06862 23.1114C7.55073 23.4595 8.06003 23.2989 8.22027 23.2188L8.2371 23.2104L8.25098 23.2231C8.36344 23.3253 8.52103 23.3483 8.67713 23.3327C8.8328 23.317 8.98186 23.2634 9.07097 23.2188L9.11288 23.1979L9.11068 23.2447C9.09735 23.5246 9.22444 23.8885 9.47461 24.1826C9.72416 24.476 10.0943 24.6978 10.5651 24.6978C10.9391 24.6978 11.2364 24.5065 11.4573 24.2642C11.6768 24.0234 11.8186 23.7342 11.8823 23.5406V21.9799L11.9318 22.0471C12.3437 22.6053 13.2651 23.8356 13.6594 24.2957C13.8996 24.5759 14.2407 24.6771 14.5713 24.6738C14.9026 24.6704 15.2194 24.562 15.4064 24.4285C15.7048 24.2153 15.87 23.8777 15.9163 23.7329V23.2995L15.9424 23.2983C16.5076 23.2713 16.9127 22.9212 17.1297 22.6499L17.1558 22.6173L17.1754 22.6542C17.3573 22.9966 17.6581 23.162 17.9625 23.2296C18.2676 23.2973 18.5746 23.2662 18.7633 23.2168L18.7977 23.2078V23.7336C18.8797 24.0563 19.2562 24.6978 20.1149 24.6978C20.5446 24.6978 20.8531 24.5057 21.065 24.2646C21.2766 24.024 21.3912 23.735 21.4321 23.5422V21.9851L21.481 22.0462C21.7554 22.3892 22.1765 22.9133 22.5483 23.3708C22.9209 23.8293 23.242 24.2187 23.3175 24.2942C23.4099 24.3866 23.6525 24.5489 23.9567 24.6266C24.2599 24.7041 24.6214 24.6969 24.9561 24.456C25.2937 24.2129 25.4472 23.9377 25.4973 23.657C25.5477 23.3752 25.4942 23.0851 25.4123 22.8122L25.459 22.7859C25.825 23.1926 26.1543 23.2985 26.41 23.3051C26.5386 23.3085 26.6499 23.2867 26.74 23.2639C26.786 23.2522 26.8239 23.241 26.8591 23.2317C26.8925 23.2229 26.9232 23.2159 26.9479 23.2159H26.9799L26.975 23.2475C26.9621 23.3315 26.9732 23.4645 27.0151 23.6182C27.0569 23.7713 27.1286 23.9426 27.2349 24.1029C27.4472 24.423 27.7962 24.6978 28.32 24.6978C28.7387 24.6978 29.0543 24.5057 29.2796 24.264C29.504 24.0233 29.6376 23.7344 29.6921 23.5413V21.9826L31.4678 24.2939C31.6164 24.4103 31.8776 24.558 32.1793 24.6229C32.4821 24.6881 32.8237 24.6697 33.1342 24.4556C33.5262 24.1853 33.6795 23.8831 33.7229 23.596C33.7666 23.3071 33.6995 23.0309 33.6445 22.8109L33.6952 22.791C33.8543 23.0774 34.1355 23.2093 34.4268 23.2568C34.7183 23.3043 35.0162 23.2664 35.2008 23.2168L35.2353 23.2076V23.5413C35.2899 23.7346 35.4209 24.0236 35.6372 24.2643C35.8545 24.5061 36.1563 24.6978 36.5525 24.6978C36.949 24.6978 37.2601 24.506 37.4889 24.2639C37.7165 24.0231 37.861 23.734 37.9246 23.5406V21.9857L39.881 24.4103L40.8608 16.2723C40.7968 15.1613 40.6665 13.5005 40.4838 12.1255C40.3924 11.4373 40.288 10.8218 40.1724 10.3828C40.1145 10.163 40.0542 9.9892 39.9922 9.87291C39.9612 9.81469 39.9305 9.77261 39.9009 9.74631C39.8716 9.72029 39.8455 9.71143 39.8214 9.71432C39.5566 9.74609 39.3544 9.90288 39.2086 10.0889C39.0637 10.2737 38.9763 10.4851 38.94 10.6238V11.1036L38.9003 11.0837C38.9002 11.0837 38.8997 11.0835 38.8986 11.0831C38.8974 11.0826 38.8957 11.082 38.8935 11.0814C38.889 11.08 38.8828 11.0784 38.8746 11.0766C38.8583 11.0729 38.8348 11.0685 38.8028 11.0637C38.7387 11.054 38.6411 11.0426 38.4988 11.0316L38.4744 11.0298L38.4735 11.0054C38.4466 10.3065 37.8272 9.65916 37.0455 9.63221C36.6545 9.61872 36.3934 9.7399 36.2165 9.88336C36.0388 10.0276 35.9453 10.1947 35.8893 10.2786L35.8665 10.3128L35.8437 10.2786C35.37 9.56805 34.6242 9.60573 34.3112 9.71303L34.2749 9.72552V9.33034ZM34.3298 9.64962C34.6696 9.54885 35.3904 9.53624 35.8658 10.2138C35.9233 10.124 36.0192 9.97272 36.1819 9.8407C36.3687 9.68916 36.6427 9.56336 37.0475 9.57732C37.8484 9.60495 38.4859 10.2603 38.5271 10.9789C38.6573 10.9894 38.7489 11 38.811 11.0094C38.8429 11.0142 38.8673 11.0188 38.8851 11.0227V10.6166L38.886 10.6133C38.9234 10.4684 39.0141 10.248 39.1654 10.055C39.3168 9.86191 39.5308 9.69394 39.8149 9.65986C39.8594 9.65452 39.9006 9.67256 39.9374 9.70526C39.9739 9.73769 40.0082 9.78617 40.0407 9.84708C40.1057 9.96908 40.1672 10.1479 40.2254 10.3688C40.3419 10.8112 40.4468 11.4295 40.5383 12.1183C40.7213 13.4961 40.8517 15.1598 40.9157 16.2716L40.9159 16.274L40.9156 16.2764L39.9199 24.5461L37.9795 22.141V23.5496L37.9782 23.5537C37.9131 23.7536 37.7644 24.0523 37.5288 24.3015C37.293 24.5511 36.9684 24.7527 36.5525 24.7527C36.1366 24.7527 35.8209 24.5509 35.5964 24.3011C35.3722 24.0516 35.2373 23.7526 35.1815 23.5526L35.1805 23.549V23.2786C34.9888 23.3252 34.7012 23.357 34.418 23.3109C34.1628 23.2693 33.9086 23.1638 33.7334 22.946C33.777 23.1392 33.813 23.3671 33.7772 23.6042C33.7314 23.9071 33.5692 24.2223 33.1654 24.5008C32.8391 24.7258 32.481 24.744 32.1677 24.6766C31.855 24.6092 31.5851 24.4562 31.4314 24.3351L31.4287 24.333L31.4266 24.3303L29.747 22.1441V23.549L29.7459 23.5526C29.6901 23.7528 29.5523 24.0519 29.3197 24.3014C29.0867 24.5514 28.7574 24.7527 28.32 24.7527C27.7736 24.7527 27.4091 24.4649 27.1891 24.1332C27.0793 23.9676 27.0053 23.7908 26.9621 23.6326C26.9242 23.4936 26.9097 23.3672 26.9168 23.2745C26.9045 23.2768 26.89 23.2803 26.8732 23.2848C26.841 23.2933 26.7989 23.3056 26.7535 23.3171C26.661 23.3406 26.5442 23.3635 26.4086 23.3599C26.1549 23.3534 25.8402 23.2543 25.4955 22.9046C25.5604 23.1498 25.5971 23.4103 25.5514 23.6667C25.4986 23.9623 25.3365 24.2496 24.9881 24.5005C24.6367 24.7535 24.2573 24.7601 23.9431 24.6798C23.6298 24.5997 23.3784 24.4327 23.2787 24.333C23.2006 24.2549 22.8769 23.8621 22.5057 23.4054C22.1553 22.9741 21.7609 22.4836 21.487 22.1415V23.5481L21.4864 23.5509C21.4444 23.7514 21.326 24.0509 21.1063 24.3008C20.8859 24.5515 20.5632 24.7527 20.1149 24.7527C19.2199 24.7527 18.8278 24.0808 18.7436 23.744L18.7428 23.7407V23.2784C18.5458 23.3244 18.2479 23.3492 17.9507 23.2832C17.6456 23.2155 17.3396 23.0516 17.1468 22.7157C16.9225 22.9842 16.523 23.3157 15.9711 23.3516V23.7415L15.9699 23.7455C15.923 23.8955 15.7519 24.2491 15.4383 24.4731C15.2411 24.614 14.913 24.7252 14.5719 24.7287C14.2303 24.7321 13.8715 24.6275 13.6178 24.3314C13.237 23.8872 12.369 22.7305 11.9372 22.1465V23.5496L11.9359 23.5537C11.8708 23.7534 11.725 24.052 11.4979 24.3012C11.2705 24.5506 10.9595 24.7527 10.5651 24.7527C10.0755 24.7527 9.69092 24.5216 9.4328 24.2181C9.18815 23.9305 9.05547 23.5758 9.05494 23.2869C8.96018 23.329 8.82441 23.3731 8.6826 23.3873C8.52532 23.403 8.35579 23.3825 8.2282 23.2759C8.04487 23.3614 7.53726 23.5068 7.05152 23.1664C7.00215 23.1956 6.91273 23.2358 6.79897 23.2725C6.67083 23.3137 6.50998 23.3511 6.33755 23.3633C5.99345 23.3876 5.59885 23.3115 5.33041 22.9595C5.28872 22.9171 5.24256 22.8381 5.19561 22.7416C5.14763 22.6429 5.09722 22.5226 5.04838 22.3964C4.95277 22.1493 4.86257 21.878 4.80719 21.6989C4.50214 21.5586 3.96855 21.0504 4.14392 20.0836C4.15009 20.0334 4.14241 19.9721 4.12913 19.8967C4.11603 19.8224 4.09772 19.7351 4.08561 19.6381C4.06141 19.4446 4.06119 19.2088 4.17029 18.932C4.15502 18.8361 4.08883 18.5944 4.08882 18.321C4.08882 18.0388 4.15856 17.7147 4.4267 17.4606C4.82325 17.085 5.18498 16.7291 5.33732 16.5772L4.29126 15.7457L4.28665 15.7421L4.28397 15.7368C4.20925 15.5921 4.12166 15.3416 4.09986 15.0575C4.07805 14.7732 4.12201 14.4532 4.31313 14.1721L4.31457 14.17L4.51631 13.9682C4.36136 13.8118 4.08883 13.4177 4.08882 12.9252C4.08882 12.2818 4.48106 11.9453 4.53593 11.8905C4.5792 11.8472 5.39468 11.0138 5.81112 10.5881L5.54667 10.112L5.54506 10.1091L5.54415 10.1058C5.49314 9.91566 5.45007 9.61021 5.48648 9.30987C5.52286 9.0098 5.63943 8.70958 5.9129 8.53866C6.24431 8.33153 6.5233 8.22615 6.7904 8.21209C7.05787 8.19801 7.31001 8.2757 7.58718 8.42814C7.70127 8.4909 7.85257 8.6311 8.02116 8.81372C8.19052 8.99718 8.37969 9.22613 8.56972 9.46916C8.92572 9.92445 9.28549 10.4305 9.52531 10.7825L9.57719 9.35677L9.57736 9.35312L9.57843 9.34969C9.63884 9.15452 9.77646 8.86397 9.99391 8.62447C10.2116 8.3847 10.5115 8.19394 10.8952 8.20523C11.3696 8.21918 11.7257 8.42165 11.9663 8.64832C12.0865 8.76159 12.1782 8.88106 12.2416 8.98646C12.3045 9.09109 12.3411 9.18418 12.3486 9.24464C12.368 9.39945 12.3607 9.57852 12.3524 9.67782C12.5322 9.63283 12.8056 9.60962 13.0891 9.67476C13.3844 9.74262 13.6913 9.90656 13.9138 10.2415C14.0021 10.1179 14.1505 9.9519 14.3373 9.81653C14.5419 9.66836 14.7954 9.55472 15.0679 9.57743C15.3989 9.60502 15.6797 9.66741 15.9192 9.85056C16.1532 10.0295 16.3442 10.3209 16.5072 10.7976C16.6482 10.7053 16.7462 10.6101 16.7882 10.5622L16.5238 10.1127L16.5215 10.1088L16.5206 10.1045C16.4697 9.86838 16.4418 9.49775 16.5242 9.15181C16.6067 8.80535 16.801 8.47976 17.1971 8.34394C17.6809 8.17807 18.0162 8.17689 18.2599 8.24752C18.5036 8.31816 18.6518 8.45966 18.7622 8.57001C18.8073 8.61516 18.9104 8.73794 19.0466 8.90564C19.1833 9.07395 19.3545 9.28898 19.5368 9.51986C19.8802 9.95479 20.2628 10.4464 20.5278 10.7887L20.5539 9.32986L20.554 9.32595L20.5552 9.32225C20.6157 9.12684 20.7562 8.83745 20.9821 8.60196C21.2085 8.36604 21.5223 8.18277 21.9275 8.20528C22.9325 8.26111 23.2689 9.01597 23.3251 9.32541C23.3473 9.44756 23.3522 9.53449 23.3488 9.59399C23.3478 9.61174 23.3459 9.62722 23.3436 9.64062C23.5152 9.58141 23.769 9.54344 24.0365 9.60058C24.3288 9.66302 24.6361 9.83874 24.8687 10.2207C25.0182 10.0762 25.4126 9.55097 26.1254 9.57727C26.3185 9.56835 26.6157 9.62214 26.8874 9.81138C27.1529 9.99625 27.3926 10.3094 27.4879 10.8153L27.788 10.5614C27.6474 10.3819 27.483 10.0848 27.4265 9.74787C27.3675 9.39632 27.4258 9.00068 27.7511 8.65298C28.1562 8.22 28.6392 8.13578 29.031 8.19874C29.2265 8.23017 29.3997 8.29828 29.5298 8.37824C29.5948 8.41822 29.6495 8.46145 29.691 8.505C29.73 8.54602 29.7582 8.58871 29.7712 8.63031C29.9932 8.87624 31.0052 10.1326 31.5307 10.7889V9.35371L31.5319 9.34985C31.5923 9.15005 31.7313 8.85389 31.953 8.61268C32.175 8.37111 32.482 8.18272 32.8769 8.20528C33.848 8.26078 34.3298 8.9006 34.3298 9.33034V9.64962Z" fill="black"/>
<path d="M40.12 45.5809C40.0286 45.8279 39.7633 46.3657 39.434 46.5414C39.1047 46.717 38.5833 46.395 38.3638 46.2121C38.4644 46.7792 38.468 48.0013 37.6777 48.3525C37.2935 48.5172 36.3331 48.2428 36.141 47.5567C36.141 47.9683 35.9489 49.0386 35.1805 49.3679C34.9884 49.4502 34.3572 49.313 34.1926 48.8465C34.1103 49.1483 33.5889 50.4381 32.7656 49.56C32.4912 49.2307 31.9972 48.4623 31.9424 48.2428C31.8875 48.4623 31.2289 49.6697 30.7898 48.7093C30.6526 48.4348 30.5428 48.2428 30.4605 47.9683C30.3233 48.1055 29.747 48.4348 29.5824 47.5018C29.5384 46.8213 29.5641 45.8279 29.5824 45.4162C29.3354 45.5443 28.7481 45.6797 28.3749 45.1967C28.1279 44.8948 28.073 44.0442 28.1279 43.7697C28.1828 43.4953 28.6768 42.0409 28.9512 41.7116C28.7591 41.7939 27.2223 42.4525 27.4419 40.3669C27.4876 40.1474 27.6285 39.648 27.826 39.4065C27.5791 39.3516 27.1674 38.8851 27.6614 37.7874C27.7931 37.4801 28.1553 37.1288 28.32 36.9916C27.8809 36.4793 27.2882 35.2463 28.4298 34.4121C28.6767 34.3297 28.5944 34.2748 29.3353 34.2748C29.253 34.1376 28.9512 32.6558 30.0763 32.2167C30.3507 32.1344 30.68 32.0246 31.3112 32.4362C31.3295 31.9423 31.5691 30.927 32.3814 30.8172C32.7107 30.7898 33.3144 30.927 33.7809 31.5307C33.9456 31.3111 34.5767 30.1586 35.647 30.186C35.9763 30.186 36.4153 30.3232 36.4153 30.927C36.6623 30.7349 37.3484 30.1037 38.7205 30.2409C38.94 30.2684 39.4339 30.5702 38.9949 31.9972C39.3791 31.7502 39.5712 31.5307 39.9005 31.5307C40.1639 31.5307 40.1566 40.8975 40.12 45.5809Z" fill="#8BC24B"/>
<path d="M34.355 30.7462C34.6697 30.4315 35.1019 30.1445 35.6477 30.1585L35.6476 30.1585C35.8152 30.1586 36.0136 30.1934 36.1708 30.3078C36.32 30.4163 36.4287 30.5938 36.4415 30.871C36.573 30.7659 36.7975 30.5838 37.135 30.4352C37.5012 30.2739 38 30.1522 38.659 30.2075L38.7232 30.2135L38.7239 30.2135C38.8434 30.2285 39.0306 30.3173 39.1304 30.5845C39.2261 30.841 39.2404 31.2594 39.0428 31.9327C39.1128 31.8859 39.1764 31.8405 39.2362 31.7977C39.3132 31.7425 39.3843 31.6914 39.4537 31.6479C39.5934 31.5607 39.7288 31.5031 39.9005 31.5031C39.9156 31.5031 39.9266 31.5116 39.9332 31.5192C39.9399 31.5268 39.9452 31.5366 39.9496 31.5467C39.9584 31.5671 39.9663 31.5959 39.9736 31.6313C39.9884 31.7026 40.0019 31.8067 40.0144 31.9396C40.0394 32.2057 40.0606 32.5905 40.0785 33.0663C40.1143 34.018 40.1369 35.3355 40.1502 36.7991C40.1767 39.7265 40.1658 43.2392 40.1475 45.581L40.1475 45.5858L40.1458 45.5903C40.0995 45.7154 40.0094 45.9133 39.8894 46.1024C39.7698 46.2908 39.618 46.4742 39.4469 46.5654C39.271 46.6593 39.0481 46.6186 38.8473 46.5364C38.6759 46.4663 38.515 46.3636 38.4021 46.2774C38.4449 46.5638 38.4611 46.9774 38.3817 47.3686C38.2957 47.7925 38.0959 48.1966 37.6889 48.3775L37.6885 48.3776C37.5868 48.4212 37.4497 48.4348 37.3001 48.4213C37.15 48.4078 36.9851 48.3667 36.8265 48.2987C36.5508 48.1806 36.2906 47.9793 36.1625 47.6956C36.1458 47.9103 36.0916 48.2101 35.9744 48.5032C35.829 48.8667 35.5849 49.2242 35.1913 49.3929C35.1371 49.4162 35.0562 49.4227 34.9656 49.4139C34.8741 49.4051 34.7695 49.3804 34.6659 49.3383C34.4802 49.2627 34.2946 49.1295 34.1965 48.9268C34.1351 49.1109 33.9919 49.4434 33.7767 49.6647C33.6522 49.7927 33.5007 49.8864 33.3247 49.8887C33.1483 49.891 32.9545 49.8014 32.7456 49.5786L32.7451 49.578L32.7445 49.5774C32.6062 49.4114 32.4134 49.1359 32.2485 48.8747C32.166 48.744 32.0901 48.6166 32.0314 48.5078C31.9943 48.439 31.9635 48.3768 31.9422 48.3254C31.9165 48.3879 31.8759 48.4702 31.8245 48.5571C31.7474 48.6874 31.6447 48.8314 31.5288 48.9385C31.4138 49.0448 31.2804 49.1197 31.1434 49.0994C31.0053 49.079 30.876 48.9638 30.7649 48.7206H30.7648C30.6353 48.4617 30.5286 48.2729 30.447 48.0172C30.4098 48.0478 30.359 48.0817 30.3002 48.1092C30.2216 48.1461 30.1265 48.1728 30.0292 48.1636C29.9308 48.1543 29.8323 48.1086 29.7484 48.0047C29.6651 47.9016 29.5969 47.7423 29.5553 47.5065L29.5551 47.505L29.555 47.5035C29.5126 46.8455 29.535 45.8966 29.553 45.4607C29.4238 45.5193 29.231 45.5725 29.0247 45.5629C28.7938 45.552 28.5455 45.4623 28.3532 45.2134V45.2133C28.2884 45.1339 28.2375 45.0205 28.1982 44.893C28.1586 44.7646 28.13 44.6198 28.111 44.4764C28.0731 44.1905 28.0727 43.9057 28.101 43.7642C28.129 43.6245 28.2669 43.1904 28.4316 42.7515C28.514 42.5316 28.6034 42.3097 28.6896 42.1219C28.7532 41.9831 28.8157 41.8615 28.8728 41.7732C28.807 41.7986 28.7154 41.8304 28.6099 41.856C28.4404 41.8972 28.2324 41.9231 28.0362 41.8789C27.8386 41.8344 27.6538 41.719 27.5336 41.4807C27.414 41.2438 27.3594 40.8879 27.4146 40.3639L27.4148 40.3625L27.415 40.3612C27.4381 40.2503 27.4851 40.0693 27.5512 39.8855C27.6116 39.7175 27.6889 39.5448 27.7799 39.4213C27.6525 39.3748 27.5064 39.2376 27.4394 38.9952C27.3651 38.7263 27.3878 38.3285 27.6364 37.776C27.704 37.6184 27.8297 37.4513 27.9579 37.3073C28.0761 37.1745 28.1978 37.0598 28.2814 36.9883C28.0636 36.7269 27.8145 36.2964 27.7549 35.8259C27.6934 35.3403 27.8341 34.8133 28.4136 34.3897L28.417 34.3872L28.4211 34.3859C28.4815 34.3658 28.5214 34.3474 28.5603 34.3306C28.5995 34.3136 28.6373 34.2983 28.6911 34.2857C28.7934 34.2619 28.9523 34.2485 29.2936 34.2474C29.2861 34.2267 29.2784 34.2011 29.2708 34.1717C29.2566 34.116 29.2423 34.0441 29.231 33.9606C29.2085 33.7938 29.198 33.5795 29.2258 33.3555C29.2814 32.9073 29.4909 32.4156 30.0663 32.191L30.0673 32.1906L30.0684 32.1903C30.2053 32.1492 30.3607 32.0996 30.5619 32.1137C30.7547 32.1273 30.9871 32.1992 31.2861 32.3876C31.3014 32.1386 31.3683 31.7834 31.524 31.4703C31.6899 31.1365 31.9592 30.8465 32.3777 30.7899L32.3784 30.7898L32.3791 30.7897C32.7117 30.762 33.3106 30.8978 33.7799 31.4848C33.871 31.3536 34.0656 31.0356 34.355 30.7462ZM35.6463 30.2133C35.1219 30.1999 34.7034 30.4754 34.3938 30.785C34.0834 31.0954 33.8879 31.4337 33.8029 31.547L33.7813 31.5758L33.7592 31.5473C33.299 30.9518 32.705 30.8178 32.3843 30.8443C31.991 30.8978 31.7345 31.1702 31.5731 31.4947C31.4115 31.8197 31.3477 32.193 31.3386 32.4371L31.3368 32.4856L31.2962 32.4591C30.9834 32.2551 30.7477 32.1818 30.558 32.1685C30.3688 32.1552 30.2227 32.2013 30.0856 32.2424C29.5364 32.4571 29.3344 32.9256 29.2803 33.3622C29.2532 33.5807 29.2633 33.79 29.2854 33.9533C29.2964 34.0349 29.3104 34.1047 29.324 34.1581C29.3379 34.2126 29.3509 34.2472 29.3589 34.2606L29.3838 34.3022H29.3354C28.9647 34.3022 28.803 34.3159 28.7036 34.3392C28.6545 34.3506 28.6202 34.3644 28.5822 34.3809C28.5448 34.3971 28.5035 34.4159 28.4427 34.4364C27.8834 34.8467 27.7503 35.3524 27.8094 35.819C27.8689 36.2887 28.1237 36.7202 28.3409 36.9736L28.359 36.9947L28.3376 37.0125C28.2563 37.0803 28.1255 37.2015 27.9989 37.3438C27.8719 37.4865 27.7508 37.6485 27.6867 37.7981L27.6864 37.7985C27.4411 38.3438 27.4226 38.728 27.4924 38.9805C27.5623 39.2335 27.7203 39.3547 27.832 39.3796L27.8755 39.3892L27.8473 39.4237C27.7516 39.5407 27.6683 39.7223 27.6029 39.9041C27.538 40.0845 27.4918 40.2623 27.469 40.3711C27.4147 40.8891 27.4699 41.2326 27.5826 41.456C27.6948 41.6782 27.865 41.784 28.0482 41.8253C28.2327 41.8669 28.4313 41.843 28.597 41.8027C28.7624 41.7625 28.8927 41.7067 28.9404 41.6862L28.9723 41.729C28.9063 41.8082 28.8252 41.9578 28.7395 42.1448C28.6541 42.3309 28.5651 42.5515 28.483 42.7707C28.3183 43.2099 28.1818 43.6402 28.1548 43.775C28.1283 43.9079 28.1279 44.1857 28.1654 44.4692C28.1842 44.6105 28.2122 44.7521 28.2507 44.8768C28.2868 44.994 28.3316 45.0944 28.3853 45.1654L28.3962 45.1792L28.3967 45.1798H28.3966C28.5775 45.4139 28.8096 45.4978 29.0273 45.508C29.246 45.5183 29.4498 45.4539 29.5697 45.3917L29.6119 45.3699L29.6098 45.4173C29.5915 45.8284 29.566 46.8195 29.6097 47.4984C29.6504 47.7283 29.7159 47.8772 29.7911 47.9703C29.8658 48.0628 29.9509 48.1011 30.0343 48.109C30.1188 48.1169 30.2038 48.0938 30.2769 48.0595C30.3501 48.0252 30.4092 47.9808 30.4411 47.9488L30.4736 47.9163L30.4868 47.9603C30.5479 48.164 30.624 48.3213 30.7165 48.5036L30.8144 48.6969L30.8146 48.6973L30.8148 48.6977C30.9231 48.9347 31.0409 49.0288 31.1515 49.0451C31.2632 49.0617 31.3802 49.0012 31.4915 48.8982C31.602 48.7961 31.7017 48.6571 31.7773 48.5292C31.8532 48.4008 31.903 48.2869 31.9158 48.2359H31.969C31.9818 48.2871 32.0213 48.3735 32.0797 48.4817C32.1376 48.589 32.2128 48.7154 32.2949 48.8454C32.459 49.1052 32.65 49.378 32.7861 49.5415C32.9887 49.7574 33.1686 49.8358 33.324 49.8338C33.4798 49.8318 33.6183 49.7489 33.7373 49.6265C33.9762 49.3809 34.1255 48.9882 34.1661 48.8391L34.1892 48.7544L34.2185 48.8372C34.2973 49.0605 34.4886 49.2068 34.6866 49.2874C34.7854 49.3276 34.8849 49.351 34.9709 49.3593C35.0578 49.3677 35.1279 49.3604 35.1697 49.3425C35.5444 49.1819 35.7807 48.8397 35.9234 48.4829C36.066 48.1262 36.1136 47.7592 36.1136 47.5566L36.1674 47.5492C36.2604 47.8813 36.5404 48.1164 36.8481 48.2483C37.0017 48.3141 37.161 48.3536 37.305 48.3667C37.4496 48.3797 37.5766 48.3659 37.6669 48.3272C38.05 48.1567 38.2434 47.7742 38.3279 47.3576C38.4124 46.9415 38.3866 46.4978 38.3367 46.2167L38.3236 46.1427L38.3813 46.1908C38.4895 46.2809 38.6724 46.4055 38.8681 46.4857C39.0653 46.5663 39.2678 46.5988 39.4211 46.517C39.5793 46.4326 39.7248 46.2592 39.843 46.073C39.9594 45.8897 40.047 45.6976 40.0926 45.5754C40.1109 43.2338 40.1218 39.7244 40.0953 36.7996C40.082 35.3361 40.0594 34.0192 40.0236 33.0683C40.0058 32.5928 39.9846 32.2092 39.9597 31.9447C39.9473 31.8124 39.934 31.7107 39.9199 31.6425C39.9128 31.6081 39.9058 31.5837 39.8992 31.5684C39.8971 31.5635 39.8952 31.5602 39.8938 31.5581C39.7393 31.5595 39.6157 31.6114 39.4828 31.6944C39.4151 31.7368 39.3455 31.7868 39.2681 31.8423C39.191 31.8976 39.1064 31.958 39.0097 32.0202L38.9466 32.0607L38.9687 31.989C39.1875 31.2779 39.1719 30.8527 39.0789 30.6037C38.9866 30.3564 38.8171 30.2805 38.7171 30.268V30.2679C38.0363 30.2 37.5267 30.3227 37.157 30.4854C36.7869 30.6484 36.5566 30.8517 36.4322 30.9485L36.3879 30.9829V30.9268C36.3879 30.6325 36.2814 30.4561 36.1385 30.3522C35.9941 30.2471 35.8086 30.2133 35.647 30.2133H35.6463Z" fill="black"/>
<path d="M38.5283 42.7819C38.7479 42.9356 39.6077 42.846 40.0102 42.7819V39.3243C38.51 37.3759 35.4604 33.4078 35.2628 33.1224C35.0158 32.7657 34.467 32.7657 34.3023 32.848C33.4791 33.1224 33.6437 34.4945 33.726 34.8787C33.2046 34.3024 32.6833 34.028 32.354 34.1926C31.8929 34.4122 31.9789 35.4732 32.0795 35.9764C31.3386 35.2354 30.7623 35.5647 30.5427 35.7843C29.7963 36.9258 30.5611 37.5588 31.0367 37.7326C30.9544 37.7326 30.7184 37.7765 30.433 37.9522C28.9182 39.2913 29.875 39.9188 30.5427 40.0652C29.9939 40.7238 30.1311 42.4526 30.433 42.7819C30.7623 43.1551 31.3568 42.846 31.613 42.6447C31.5124 43.1387 31.5361 44.2912 32.4362 44.9498C33.5613 45.7731 33.6711 45.1694 33.8632 44.3461C34.3572 45.6084 35.592 46.2671 36.086 46.1024C36.6568 45.9048 36.4519 44.9407 36.2781 44.4833C36.3604 44.5382 36.6458 44.6699 37.1288 44.7578C39.1595 44.7303 38.6655 43.221 38.5283 42.7819Z" fill="#689F39"/>
<path d="M34.485 32.7785C34.5658 32.7723 34.6599 32.7758 34.7566 32.7934C34.9495 32.8284 35.1563 32.9202 35.2854 33.1066C35.4825 33.3914 38.5314 37.3584 40.0319 39.3074L40.0376 39.3148V42.8052L40.0145 42.8089C39.8125 42.841 39.4958 42.8796 39.2017 42.8908C39.0547 42.8965 38.9126 42.8953 38.793 42.8829C38.7085 42.8741 38.6326 42.8594 38.5739 42.8362C38.6483 43.0769 38.7736 43.5249 38.6681 43.931C38.61 44.1547 38.4819 44.3658 38.2383 44.5221C37.9954 44.678 37.6399 44.7781 37.1292 44.785L37.1265 44.7851L37.1239 44.7846C36.726 44.7122 36.4597 44.6099 36.3291 44.5436C36.4088 44.7729 36.4873 45.0943 36.4887 45.39C36.4903 45.7155 36.3982 46.0232 36.095 46.1282L36.0947 46.1283C35.9635 46.172 35.7873 46.1601 35.5918 46.1011C35.3957 46.0418 35.177 45.934 34.9589 45.7817C34.5412 45.49 34.1238 45.0334 33.8704 44.4359C33.8299 44.6099 33.7912 44.7733 33.7434 44.9123C33.6881 45.073 33.619 45.2063 33.5165 45.2869C33.4121 45.3689 33.2774 45.3929 33.0997 45.3449C32.9233 45.2973 32.7023 45.1783 32.42 44.9718C31.9636 44.6378 31.7297 44.1787 31.6227 43.7419C31.525 43.3434 31.5328 42.9621 31.5737 42.708C31.4422 42.8015 31.2536 42.9058 31.0571 42.9552C30.8304 43.0123 30.5867 42.9975 30.4124 42.7999V42.7999C30.3716 42.7552 30.335 42.6888 30.303 42.6076C30.2707 42.5257 30.2423 42.4271 30.2187 42.3167C30.1716 42.096 30.1431 41.8265 30.1414 41.547C30.1397 41.2676 30.1647 40.9773 30.2249 40.7149C30.281 40.4703 30.3681 40.248 30.4943 40.0819C30.3365 40.0431 30.1659 39.9785 30.0163 39.8847C29.8532 39.7824 29.7133 39.6443 29.6438 39.4658C29.5037 39.1058 29.6559 38.6024 30.4148 37.9315L30.4166 37.9299L30.4186 37.9286C30.6269 37.8005 30.8103 37.7409 30.9296 37.7177C30.7053 37.6141 30.4472 37.4212 30.3068 37.1333C30.1443 36.8 30.1426 36.346 30.5198 35.7691L30.5214 35.7667L30.5233 35.7647C30.6362 35.6518 30.8411 35.5103 31.1139 35.4926C31.3725 35.4758 31.6871 35.5707 32.0368 35.8969C31.9929 35.6457 31.9575 35.297 31.9788 34.9762C31.9907 34.7969 32.0203 34.6248 32.077 34.4829C32.1336 34.3412 32.2182 34.2269 32.3417 34.1679L32.3583 34.16C32.5316 34.082 32.7479 34.1152 32.9804 34.2332C33.2011 34.3451 33.4407 34.5355 33.6811 34.7897C33.6426 34.5676 33.6027 34.1883 33.6474 33.8187C33.6991 33.3912 33.8658 32.9651 34.2925 32.8221C34.3381 32.8 34.4062 32.7845 34.485 32.7785ZM34.7468 32.8474C34.6548 32.8307 34.5654 32.8274 34.4892 32.8332C34.4125 32.8391 34.3513 32.854 34.3146 32.8724L34.3128 32.8732L34.311 32.8739C33.9153 33.0058 33.753 33.4025 33.7018 33.8253C33.6509 34.2466 33.7121 34.6825 33.7529 34.8728L33.7743 34.9727L33.7057 34.8969C33.4463 34.6103 33.1882 34.4001 32.9555 34.2821C32.7222 34.1637 32.5196 34.1404 32.3662 34.217L32.3658 34.2172C32.259 34.2681 32.1817 34.3687 32.1279 34.5032C32.0742 34.6377 32.0452 34.8035 32.0335 34.9798C32.0102 35.3323 32.0565 35.7208 32.1064 35.9708L32.1242 36.0597L32.0601 35.9956C31.6938 35.6293 31.3719 35.5308 31.1174 35.5474C30.8635 35.5638 30.6713 35.6952 30.5642 35.8015C30.1965 36.365 30.2042 36.7975 30.3561 37.1092C30.5094 37.4235 30.8127 37.6214 31.0462 37.7067L31.0368 37.7599C30.9607 37.7599 30.7305 37.8016 30.4494 37.974C29.6951 38.6415 29.5685 39.121 29.695 39.4459C29.7588 39.6099 29.8887 39.7398 30.0455 39.8382C30.2022 39.9365 30.3841 40.0022 30.5486 40.0382L30.5927 40.0479L30.5638 40.0826C30.4305 40.2426 30.3374 40.4696 30.2783 40.7272C30.2193 40.9845 30.1946 41.2705 30.1963 41.5467C30.198 41.823 30.2262 42.0886 30.2725 42.3052C30.2956 42.4135 30.3232 42.5091 30.354 42.5874C30.3812 42.6563 30.4104 42.7105 30.4403 42.7481L30.4532 42.7632L30.4536 42.7636C30.6086 42.9393 30.8268 42.9565 31.0437 42.902C31.2607 42.8474 31.47 42.722 31.596 42.623L31.6548 42.5768L31.6399 42.65C31.5903 42.8933 31.5712 43.3009 31.676 43.7288C31.7808 44.1564 32.0088 44.603 32.4524 44.9275C32.7328 45.1327 32.9474 45.247 33.114 45.292C33.2794 45.3366 33.3951 45.3125 33.4827 45.2437C33.5723 45.1733 33.637 45.0527 33.6915 44.8945C33.7458 44.7366 33.7883 44.5462 33.8365 44.3397L33.8566 44.2537L33.8888 44.336C34.1335 44.9615 34.562 45.4376 34.9903 45.7367C35.2045 45.8863 35.418 45.9912 35.6077 46.0485C35.7981 46.1061 35.9615 46.1148 36.0773 46.0762C36.3447 45.9834 36.4354 45.7104 36.4338 45.3902C36.4323 45.0717 36.3386 44.7198 36.2524 44.4929L36.222 44.4128L36.2933 44.4603C36.3712 44.5123 36.6518 44.6427 37.1311 44.7301C37.6342 44.723 37.9777 44.6242 38.2087 44.4759C38.4393 44.3278 38.5599 44.129 38.615 43.9171C38.7259 43.4903 38.5712 43.0109 38.5021 42.79L38.4781 42.7132L38.5441 42.7593C38.5927 42.7934 38.6814 42.8161 38.7987 42.8283C38.9147 42.8403 39.0539 42.8416 39.1996 42.836C39.48 42.8253 39.7817 42.7892 39.9827 42.7581V39.3334C38.4811 37.3831 35.4382 33.4238 35.2402 33.1379C35.1223 32.9676 34.9312 32.8809 34.7468 32.8474Z" fill="black"/>
<path d="M24.6702 48.0509C25.6033 47.8314 27.2168 46.1849 24.6702 44.7579C24.3057 44.5655 23.9108 44.3664 23.4902 44.1653C23.8415 44.9646 23.9659 47.0887 23.9842 48.0509H24.6702Z" fill="#FF7143"/>
<path d="M22.6121 48.0509C22.6944 47.0629 22.3322 44.6064 21.7614 43.3931C20.7145 42.9575 19.5731 42.5397 18.3861 42.1873C19.1544 43.2483 19.7856 46.4043 19.7033 48.0509H22.6121Z" fill="#FF7143"/>
<path d="M18.3312 48.0509C18.4409 46.322 17.7768 43.5034 16.5475 41.707C15.6923 41.5153 14.8269 41.3676 13.9679 41.2801C15.4827 43.7888 15.8065 46.6787 15.7516 48.0509H18.3312Z" fill="#FF7143"/>
<path d="M14.3795 48.0509C14.471 46.8892 14.1765 43.8908 12.2665 41.1904C11.3822 41.1799 10.5864 41.2386 9.87908 41.342C11.5036 44.0318 11.7268 46.9353 11.6354 48.0509H14.3795Z" fill="#FF7143"/>
<path d="M10.2358 48.0509C10.3181 46.6238 9.96689 43.7919 8.4521 41.6355C7.43658 41.9108 6.69579 42.2684 6.22931 42.5743C7.34894 45.1743 7.4459 47.3087 7.35443 48.0509H10.2358Z" fill="#FF7143"/>
<path d="M4.08884 45.9927C4.06689 47.3539 5.03101 47.932 5.51582 48.0509H5.98233C5.96404 46.9243 5.76829 44.4547 5.13164 43.5893C4.62122 44.2063 4.10356 45.0798 4.08884 45.9927Z" fill="#FF7143"/>
<path d="M23.9842 48.0509C23.9659 47.0887 23.8415 44.9646 23.4902 44.1653C22.9527 43.9081 22.3731 43.6476 21.7614 43.3931C22.3322 44.6064 22.6944 47.0629 22.6121 48.0509H23.9842Z" fill="#FCAB90"/>
<path d="M19.7033 48.0509C19.7856 46.4043 19.1544 43.2483 18.3861 42.1873C17.7829 42.0082 17.1679 41.846 16.5475 41.707C17.7768 43.5034 18.4409 46.322 18.3312 48.0509H19.7033Z" fill="#FCAB90"/>
<path d="M13.9679 41.2801C13.3963 41.2219 12.8275 41.1904 12.2665 41.1904C14.1765 43.8908 14.471 46.8892 14.3795 48.0509H15.7516C15.8065 46.6787 15.4827 43.7888 13.9679 41.2801Z" fill="#FCAB90"/>
<path d="M11.6354 48.0509C11.7268 46.9353 11.5036 44.0318 9.87908 41.342C9.35481 41.4186 8.87916 41.5198 8.4521 41.6355C9.96689 43.7919 10.3181 46.6238 10.2358 48.0509H11.6354Z" fill="#FCAB90"/>
<path d="M6.22931 42.5743C6.05286 42.69 5.91566 42.7982 5.81768 42.8918C5.63096 43.0454 5.38217 43.2865 5.13164 43.5893C5.76829 44.4547 5.96404 46.9243 5.98233 48.0509H7.35443C7.4459 47.3087 7.34894 45.1743 6.22931 42.5743Z" fill="#FCAB90"/>
<path d="M12.2668 41.1628L12.2668 41.1629C12.8287 41.1629 13.3984 41.1944 13.9707 41.2527C14.8309 41.3402 15.6974 41.4882 16.5535 41.6801C17.1745 41.8193 17.7902 41.9816 18.3939 42.1608C19.582 42.5135 20.7243 42.9317 21.772 43.3676C22.3842 43.6222 22.9641 43.883 23.5021 44.1403C23.8704 44.3165 24.219 44.491 24.5448 44.6609L24.6831 44.7334L24.6836 44.7338C25.323 45.092 25.7044 45.4658 25.9 45.8304C26.096 46.1958 26.1042 46.5501 26.0012 46.8655C25.8984 47.1802 25.6852 47.4552 25.4398 47.6651C25.1945 47.8749 24.9148 48.0214 24.6765 48.0774L24.6734 48.0782H5.5125L5.50929 48.0774C5.01584 47.9563 4.03919 47.3696 4.06141 45.9921C4.07629 45.0699 4.59862 44.1904 5.11047 43.5717C5.36156 43.2682 5.6111 43.0261 5.79914 42.8713C5.89858 42.7764 6.03707 42.6673 6.21425 42.5512C6.68346 42.2436 7.42699 41.8848 8.44492 41.6089C8.87305 41.4928 9.34978 41.3914 9.87512 41.3146C10.5839 41.211 11.3811 41.1523 12.2668 41.1628ZM23.5429 44.2209C23.7053 44.636 23.8162 45.3329 23.8894 46.044C23.9653 46.7823 24.0011 47.5401 24.0111 48.0233H24.6668C24.8944 47.9691 25.1651 47.8278 25.4042 47.6234C25.6441 47.4182 25.8501 47.1512 25.949 46.8485C26.0477 46.5465 26.0401 46.2079 25.8516 45.8564C25.6627 45.5042 25.291 45.1371 24.6574 44.782L24.5194 44.7096C24.2132 44.5499 23.8868 44.3863 23.5429 44.2209ZM21.8155 43.4452C22.0891 44.0545 22.3122 44.9422 22.4587 45.8017C22.6075 46.6742 22.678 47.5216 22.6417 48.0233H23.9562C23.9462 47.5412 23.9105 46.7856 23.8348 46.0496C23.758 45.3038 23.6405 44.5826 23.469 44.1854C22.9535 43.939 22.3995 43.6895 21.8155 43.4452ZM18.4533 42.2359C18.6311 42.5018 18.8001 42.8751 18.9535 43.3103C19.1199 43.7824 19.2685 44.329 19.3905 44.8935C19.6315 46.0092 19.7687 47.1977 19.7319 48.0233H22.5866C22.6232 47.5289 22.5536 46.6845 22.4046 45.8109C22.2539 44.9271 22.0227 44.0175 21.7409 43.4141C20.7196 42.9896 19.6086 42.5821 18.4533 42.2359ZM16.6089 41.7489C17.2069 42.6417 17.668 43.7739 17.968 44.897C18.2711 46.0314 18.4105 47.1588 18.3602 48.0233H19.677C19.7139 47.2041 19.5776 46.0194 19.3369 44.9051C19.2153 44.3423 19.0672 43.798 18.9017 43.3285C18.7377 42.8631 18.557 42.4728 18.3692 42.2108C17.7913 42.0394 17.2027 41.8837 16.6089 41.7489ZM14.0197 41.313C15.5033 43.7991 15.8292 46.6448 15.78 48.0233H18.3052C18.3556 47.1658 18.2174 46.0432 17.915 44.9112C17.6106 43.7717 17.1402 42.6249 16.5307 41.7312C15.6981 41.545 14.8559 41.4006 14.0197 41.313ZM12.3194 41.2179C14.1905 43.8904 14.4932 46.8423 14.409 48.0233H15.7251C15.7746 46.6468 15.4471 43.7901 13.9515 41.3058C13.4032 41.2504 12.8578 41.2198 12.3194 41.2179ZM12.2522 41.2176C11.3918 41.2081 10.6157 41.2642 9.92384 41.3631C11.5185 44.0253 11.7501 46.8872 11.6649 48.0233H14.354C14.4388 46.8507 14.1369 43.8894 12.2522 41.2176ZM9.86493 41.3716C9.36423 41.4455 8.90826 41.5418 8.49697 41.6518C9.98725 43.796 10.3405 46.5903 10.2647 48.0233H11.6099C11.6954 46.8965 11.4654 44.0312 9.86493 41.3716ZM8.44064 41.6669C7.45092 41.9371 6.72548 42.2852 6.26356 42.5846C7.36129 45.144 7.47075 47.2512 7.38525 48.0233H10.2098C10.286 46.5957 9.93245 43.8018 8.44064 41.6669ZM6.21704 42.6153C6.05482 42.7235 5.92806 42.8242 5.83666 42.9115L5.83591 42.9122L5.83511 42.9128C5.65318 43.0625 5.41127 43.2964 5.16637 43.5904C5.32264 43.8099 5.45129 44.123 5.55694 44.4852C5.66556 44.8576 5.75051 45.2839 5.81603 45.7179C5.94498 46.572 5.99884 47.4576 6.00924 48.0233H7.32999C7.41545 47.2681 7.31089 45.17 6.21704 42.6153ZM5.13014 43.6343C4.62872 44.2477 4.13065 45.1028 4.11629 45.993C4.09465 47.335 5.04228 47.9049 5.51942 48.0233H5.95431C5.94389 47.4595 5.89018 46.5769 5.76173 45.7261C5.69644 45.2936 5.61195 44.8699 5.50425 44.5006C5.40118 44.1473 5.27736 43.8458 5.13014 43.6343Z" fill="black"/>
<path d="M24.6432 38.3649C25.5762 38.1453 27.1898 36.4988 24.6432 35.0718C24.2786 34.8794 23.8837 34.6804 23.4632 34.4792C23.8144 35.2785 23.9388 37.4027 23.9571 38.3649H24.6432Z" fill="#FF7143"/>
<path d="M22.585 38.3649C22.6674 37.3769 22.3051 34.9204 21.7343 33.707C20.6874 33.2715 19.546 32.8537 18.359 32.5013C19.1274 33.5623 19.7585 36.7183 19.6762 38.3649H22.585Z" fill="#FF7143"/>
<path d="M18.3041 38.3649C18.4139 36.6359 17.7498 33.8173 16.5204 32.0209C15.6653 31.8293 14.7998 31.6815 13.9408 31.5941C15.4556 34.1027 15.7795 36.9927 15.7246 38.3649H18.3041Z" fill="#FF7143"/>
<path d="M14.3525 38.3649C14.4439 37.2032 14.1494 34.2047 12.2395 31.5044C11.3551 31.4939 10.5593 31.5525 9.85201 31.6559C11.4766 34.3458 11.6998 37.2493 11.6083 38.3649H14.3525Z" fill="#FF7143"/>
<path d="M10.2088 38.3649C10.2911 36.9378 9.93982 34.1058 8.42503 31.9495C7.40951 32.2247 6.66872 32.5824 6.20224 32.8882C7.32187 35.4882 7.41883 37.6226 7.32736 38.3649H10.2088Z" fill="#FF7143"/>
<path d="M4.06177 36.3067C4.03982 37.6678 5.00394 38.2459 5.48875 38.3649H5.95526C5.93697 37.2382 5.74122 34.7687 5.10457 33.9033C4.59415 34.5202 4.0765 35.3937 4.06177 36.3067Z" fill="#FF7143"/>
<path d="M23.9571 38.3649C23.9388 37.4027 23.8144 35.2785 23.4632 34.4792C22.9256 34.2221 22.3461 33.9615 21.7343 33.707C22.3051 34.9204 22.6674 37.3769 22.585 38.3649H23.9571Z" fill="#FCAB90"/>
<path d="M19.6762 38.3649C19.7585 36.7183 19.1274 33.5623 18.359 32.5013C17.7558 32.3222 17.1408 32.16 16.5204 32.0209C17.7498 33.8173 18.4139 36.6359 18.3041 38.3649H19.6762Z" fill="#FCAB90"/>
<path d="M13.9408 31.5941C13.3692 31.5359 12.8005 31.5044 12.2395 31.5044C14.1494 34.2047 14.4439 37.2032 14.3525 38.3649H15.7246C15.7795 36.9927 15.4556 34.1027 13.9408 31.5941Z" fill="#FCAB90"/>
<path d="M11.6083 38.3649C11.6998 37.2493 11.4766 34.3458 9.85201 31.6559C9.32774 31.7325 8.8521 31.8337 8.42503 31.9495C9.93982 34.1058 10.2911 36.9378 10.2088 38.3649H11.6083Z" fill="#FCAB90"/>
<path d="M6.20224 32.8882C6.02579 33.0039 5.88859 33.1122 5.79061 33.2058C5.60389 33.3594 5.3551 33.6004 5.10457 33.9033C5.74122 34.7687 5.93697 37.2382 5.95526 38.3649H7.32736C7.41883 37.6226 7.32187 35.4882 6.20224 32.8882Z" fill="#FCAB90"/>
<path d="M12.2397 31.477L12.2397 31.4771C12.8016 31.4771 13.3713 31.5086 13.9436 31.5669C14.8038 31.6545 15.6703 31.8024 16.5264 31.9943C17.1474 32.1335 17.7631 32.2958 18.3668 32.475C19.5549 32.8277 20.6972 33.2459 21.7449 33.6818C22.3571 33.9365 22.937 34.1972 23.475 34.4545C23.8433 34.6307 24.1919 34.8052 24.5177 34.9751L24.656 35.0476L24.6565 35.048C25.2959 35.4062 25.6773 35.78 25.8729 36.1446C26.0689 36.51 26.0771 36.8643 25.9741 37.1798C25.8713 37.4944 25.6581 37.7694 25.4127 37.9793C25.1674 38.1891 24.8877 38.3356 24.6494 38.3916L24.6463 38.3924H5.4854L5.48219 38.3916C4.98874 38.2706 4.01209 37.6838 4.03431 36.3063C4.04919 35.3841 4.57152 34.5046 5.08337 33.8859C5.33446 33.5824 5.584 33.3403 5.77204 33.1855C5.87148 33.0906 6.00997 32.9815 6.18715 32.8654C6.65636 32.5578 7.39989 32.199 8.41782 31.9231C8.84595 31.807 9.32268 31.7056 9.84802 31.6288C10.5568 31.5252 11.354 31.4665 12.2397 31.477ZM23.5158 34.5351C23.6782 34.9502 23.7891 35.6471 23.8623 36.3582C23.9382 37.0965 23.974 37.8543 23.984 38.3375H24.6397C24.8673 38.2833 25.138 38.142 25.3771 37.9376C25.617 37.7325 25.823 37.4655 25.9219 37.1627C26.0206 36.8607 26.013 36.5221 25.8245 36.1706C25.6356 35.8184 25.2639 35.4513 24.6303 35.0962L24.4923 35.0238C24.1861 34.8641 23.8597 34.7005 23.5158 34.5351ZM21.7884 33.7594C22.062 34.3687 22.2851 35.2564 22.4316 36.1159C22.5804 36.9884 22.6509 37.8358 22.6146 38.3375H23.9291C23.9191 37.8554 23.8834 37.0998 23.8077 36.3638C23.7309 35.618 23.6134 34.8968 23.4419 34.4996C22.9264 34.2532 22.3724 34.0037 21.7884 33.7594ZM18.4262 32.5501C18.604 32.816 18.773 33.1893 18.9264 33.6245C19.0928 34.0966 19.2414 34.6432 19.3634 35.2077C19.6044 36.3234 19.7416 37.5119 19.7048 38.3375H22.5595C22.5961 37.8432 22.5265 36.9987 22.3775 36.1251C22.2268 35.2413 21.9956 34.3317 21.7138 33.7283C20.6925 33.3038 19.5815 32.8963 18.4262 32.5501ZM16.5818 32.0631C17.1798 32.9559 17.6409 34.0881 17.9409 35.2112C18.244 36.3456 18.3834 37.473 18.3331 38.3375H19.6499C19.6868 37.5183 19.5505 36.3336 19.3098 35.2193C19.1882 34.6565 19.0401 34.1122 18.8746 33.6428C18.7106 33.1773 18.5299 32.787 18.3421 32.525C17.7642 32.3536 17.1756 32.1979 16.5818 32.0631ZM13.9926 31.6272C15.4762 34.1133 15.8021 36.959 15.7529 38.3375H18.2781C18.3285 37.48 18.1903 36.3574 17.8879 35.2254C17.5835 34.0859 17.1131 32.9391 16.5036 32.0454C15.671 31.8592 14.8288 31.7148 13.9926 31.6272ZM12.2923 31.5321C14.1634 34.2046 14.4661 37.1565 14.3819 38.3375H15.698C15.7475 36.961 15.42 34.1043 13.9244 31.62C13.3761 31.5646 12.8307 31.534 12.2923 31.5321ZM12.2251 31.5318C11.3647 31.5223 10.5886 31.5784 9.89674 31.6773C11.4914 34.3395 11.723 37.2014 11.6378 38.3375H14.3269C14.4117 37.1649 14.1098 34.2037 12.2251 31.5318ZM9.83783 31.6858C9.33713 31.7597 8.88116 31.856 8.46987 31.966C9.96015 34.1102 10.3134 36.9045 10.2376 38.3375H11.5828C11.6683 37.2107 11.4383 34.3454 9.83783 31.6858ZM8.41354 31.9811C7.42382 32.2513 6.69838 32.5994 6.23646 32.8988C7.33419 35.4582 7.44365 37.5654 7.35815 38.3375H10.1827C10.2589 36.9099 9.90535 34.116 8.41354 31.9811ZM6.18994 32.9295C6.02772 33.0377 5.90096 33.1384 5.80956 33.2257L5.80881 33.2264L5.80801 33.2271C5.62608 33.3767 5.38417 33.6106 5.13927 33.9046C5.29554 34.1241 5.42419 34.4372 5.52984 34.7994C5.63846 35.1718 5.72341 35.5982 5.78893 36.0321C5.91788 36.8862 5.97174 37.7718 5.98214 38.3375H7.30289C7.38835 37.5823 7.28379 35.4843 6.18994 32.9295ZM5.10304 33.9485C4.60162 34.5619 4.10355 35.417 4.08919 36.3072C4.06755 37.6492 5.01518 38.2191 5.49232 38.3375H5.92721C5.91679 37.7737 5.86308 36.8911 5.73463 36.0403C5.66934 35.6078 5.58486 35.1841 5.47715 34.8148C5.37408 34.4615 5.25026 34.16 5.10304 33.9485Z" fill="black"/>
<path d="M39.2144 39.626L39.7633 39.8456H39.9279V34.6865L39.6809 34.7688L39.8456 33.7535C39.6901 33.2961 39.1815 32.4033 38.3912 32.4911C37.6008 32.579 37.4215 33.8815 37.4307 34.5218L37.2386 34.1377C36.7721 33.5431 35.6744 32.5515 35.0158 33.3418C34.3572 34.1322 35.0524 35.4457 35.4823 36.0037C35.4091 35.9397 35.1805 35.7677 34.8512 35.5921C34.4395 35.3725 33.8084 35.6744 34.0005 36.2232C34.1926 36.7721 35.0707 36.7995 35.2628 36.9093C35.0433 36.9093 34.5493 36.9916 34.1651 37.266C33.7809 37.5404 33.4791 38.1442 33.9181 38.7753C34.3271 39.3632 35.0456 38.9274 35.12 38.8648C35.1221 38.8601 35.1239 38.8576 35.1256 38.8576C35.1275 38.8576 35.1255 38.8602 35.12 38.8648C35.0886 38.9377 35.0192 39.5514 35.0707 40.0925C35.1256 40.6688 35.6196 41.4097 36.141 41.3549C36.7557 41.289 36.7996 40.6139 36.7447 40.2846C36.8544 40.4767 37.1508 40.9432 37.4582 41.2725C37.8424 41.6842 38.4461 42.1232 39.2144 41.5195C39.971 40.925 39.5437 40.0102 39.2144 39.626Z" fill="#33691E"/>
<path d="M38.3881 32.464C38.7954 32.4187 39.1282 32.6266 39.3767 32.8995C39.6252 33.1723 39.7929 33.5134 39.8716 33.7447L39.8738 33.7512L39.8727 33.7579L39.7152 34.7285L39.9554 34.6485V39.8731H39.758L39.7531 39.8711L39.3008 39.6902C39.4496 39.8886 39.6014 40.1786 39.6488 40.4899C39.7034 40.8489 39.6188 41.2368 39.2314 41.5412C38.8411 41.8479 38.489 41.8917 38.1846 41.8032C37.8824 41.7154 37.6312 41.4983 37.4381 41.2914C37.1774 41.012 36.9251 40.6353 36.7862 40.4082C36.7964 40.5639 36.7837 40.7556 36.7196 40.9282C36.6359 41.1539 36.4637 41.348 36.1439 41.3823C35.869 41.4112 35.6069 41.2305 35.4093 40.9774C35.2109 40.7233 35.0714 40.3891 35.0434 40.0952C35.0175 39.8228 35.022 39.5325 35.0369 39.3014C35.0443 39.1858 35.0544 39.0847 35.0647 39.0078C35.0688 38.9769 35.0731 38.9498 35.0771 38.9271C35.0487 38.9444 35.0124 38.9645 34.9702 38.9847C34.8845 39.0259 34.7725 39.0689 34.6494 39.0911C34.5263 39.1133 34.391 39.1149 34.2596 39.0723C34.1276 39.0296 34.0012 38.9428 33.8956 38.7911C33.6716 38.4691 33.6357 38.1521 33.7064 37.8801C33.7768 37.609 33.9526 37.3843 34.1492 37.2438C34.4728 37.0126 34.8721 36.9159 35.1265 36.8897C35.0905 36.8801 35.0498 36.8703 35.0052 36.8598C34.8932 36.8332 34.7581 36.8021 34.623 36.757C34.354 36.6674 34.0752 36.5197 33.9746 36.2324C33.9247 36.0898 33.9277 35.9613 33.9688 35.8526C34.0098 35.7441 34.0879 35.6574 34.1848 35.5964C34.3778 35.4749 34.649 35.4532 34.8641 35.568C35.0682 35.6768 35.2341 35.7844 35.3488 35.8663C35.1544 35.583 34.9368 35.1859 34.8146 34.7677C34.6683 34.2673 34.6568 33.7299 34.9948 33.3244C35.1642 33.1211 35.3634 33.0311 35.5742 33.0218C35.7838 33.0126 36.0024 33.0833 36.2123 33.1963C36.6057 33.4081 36.9764 33.7727 37.2144 34.0636L37.2619 34.123L37.2632 34.1255L37.4036 34.4065C37.4097 34.09 37.4577 33.6633 37.5852 33.2905C37.7284 32.8717 37.9761 32.5098 38.3881 32.464ZM39.3362 32.9364C39.0939 32.6705 38.7772 32.4759 38.3942 32.5185C38.016 32.5605 37.7788 32.8938 37.6371 33.3083C37.496 33.7211 37.4536 34.2034 37.4582 34.5215L37.4062 34.5342L37.2154 34.1526C36.9831 33.8571 36.5957 33.4651 36.1862 33.2447C35.9811 33.1342 35.7726 33.0681 35.5766 33.0766C35.3818 33.0852 35.1968 33.1677 35.0369 33.3595C34.7163 33.7443 34.723 34.2589 34.8672 34.7523C35.0112 35.2452 35.2906 35.71 35.5041 35.987L35.4643 36.0244C35.3929 35.962 35.166 35.7911 34.8383 35.6164C34.6417 35.5116 34.3916 35.5311 34.2141 35.6428C34.1257 35.6985 34.0563 35.7764 34.0201 35.872C33.9841 35.9674 33.9803 36.0825 34.0264 36.2142C34.1179 36.4758 34.3741 36.6162 34.6403 36.705C34.7727 36.7491 34.9052 36.7797 35.0179 36.8063C35.0739 36.8196 35.1254 36.832 35.1689 36.8445C35.212 36.857 35.2494 36.8701 35.2764 36.8855L35.3661 36.9368H35.2628C35.0473 36.9368 34.5594 37.0182 34.1811 37.2884C33.9936 37.4224 33.8263 37.6367 33.7595 37.8939C33.693 38.1501 33.7256 38.4506 33.9407 38.7597C34.0396 38.902 34.1563 38.9812 34.2765 39.0201C34.397 39.0592 34.5227 39.0581 34.6397 39.037C34.7566 39.016 34.8638 38.975 34.9465 38.9353C35.0241 38.898 35.0785 38.8624 35.0986 38.8468L35.1013 38.8428C35.1033 38.8402 35.1113 38.8303 35.1256 38.8303L35.1321 38.831C35.1349 38.8317 35.1384 38.8329 35.1418 38.8353C35.1506 38.8414 35.1539 38.8509 35.1537 38.8589C35.1536 38.8652 35.1505 38.8715 35.1505 38.8715C35.1493 38.8737 35.1472 38.8764 35.1472 38.8764L35.1435 38.8804C35.141 38.8881 35.1376 38.9016 35.1337 38.9216C35.1291 38.9457 35.1241 38.9772 35.1191 39.015C35.109 39.0905 35.0991 39.1904 35.0917 39.3049C35.0769 39.5342 35.0725 39.8214 35.098 40.09C35.1249 40.3724 35.2599 40.6968 35.4525 40.9436C35.6459 41.1912 35.8915 41.3536 36.138 41.3276C36.4329 41.2961 36.59 41.1197 36.6682 40.9091C36.747 40.6968 36.7446 40.4508 36.7177 40.2892L36.7685 40.2711C36.8778 40.4623 37.173 40.9268 37.4783 41.2539C37.6693 41.4586 37.9122 41.6669 38.1999 41.7505C38.4855 41.8335 38.8195 41.795 39.1975 41.498C39.5667 41.2079 39.6467 40.8412 39.5945 40.4981C39.5421 40.1534 39.3558 39.8332 39.1936 39.644L39.2247 39.6006L39.7686 39.8182H39.9005V34.7247L39.6466 34.8093L39.8173 33.7562C39.7396 33.5303 39.5762 33.2 39.3362 32.9364Z" fill="black"/>
<path d="M39.7907 0H42.5349V59H39.7907V0Z" fill="#FFCC80"/>
<path d="M43.907 0H46.6512V59H43.907V0Z" fill="#FFCC80"/>
<path d="M24.3603 20.5677C23.6511 20.2264 23.3528 19.3747 23.6941 18.6655L24.8481 16.2675C25.1894 15.5582 26.041 15.2599 26.7503 15.6012C27.4596 15.9426 27.7578 16.7942 27.4165 17.5035L26.2626 19.9015C25.9213 20.6107 25.0696 20.909 24.3603 20.5677Z" fill="#BCABA4"/>
<path d="M30.3433 17.0657C29.7407 16.5592 29.6628 15.6602 30.1693 15.0577L31.8816 13.0205C32.388 12.418 33.287 12.3401 33.8896 12.8465C34.4921 13.353 34.57 14.252 34.0636 14.8545L32.3513 16.8917C31.8448 17.4943 30.9458 17.5722 30.3433 17.0657Z" fill="#BCABA4"/>
<path d="M37.126 21.9834C36.3389 21.9872 35.6978 21.3522 35.694 20.565L35.6812 17.9039C35.6775 17.1168 36.3125 16.4756 37.0996 16.4719C37.8867 16.4681 38.5278 17.1031 38.5316 17.8902L38.5444 20.5514C38.5481 21.3385 37.9131 21.9796 37.126 21.9834Z" fill="#BCABA4"/>
<path d="M19.1165 15.9181C18.5312 15.3918 18.4834 14.4906 19.0097 13.9054L20.7892 11.9266C21.3155 11.3413 22.2166 11.2936 22.8019 11.8199C23.3872 12.3462 23.435 13.2473 22.9086 13.8326L21.1292 15.8114C20.6028 16.3966 19.7017 16.4444 19.1165 15.9181Z" fill="#BCABA4"/>
<path d="M18.9168 20.0564C18.4406 20.6831 17.5465 20.8051 16.9197 20.3289L14.8008 18.7189C14.1741 18.2427 14.0521 17.3486 14.5283 16.7219C15.0045 16.0952 15.8986 15.9731 16.5253 16.4493L18.6442 18.0593C19.271 18.5355 19.393 19.4296 18.9168 20.0564Z" fill="#BCABA4"/>
<path d="M11.304 21.7688C10.6533 22.2116 9.76679 22.043 9.32398 21.3923L7.82687 19.1921C7.38405 18.5414 7.55262 17.6549 8.20337 17.2121C8.85412 16.7693 9.74062 16.9378 10.1834 17.5886L11.6806 19.7887C12.1234 20.4395 11.9548 21.326 11.304 21.7688Z" fill="#BCABA4"/>
<path d="M12.1163 15.86C11.7111 16.5348 10.8355 16.7533 10.1607 16.3481L7.87929 14.978C7.20449 14.5728 6.98596 13.6973 7.39118 13.0225C7.7964 12.3477 8.67192 12.1292 9.34672 12.5344L11.6282 13.9044C12.303 14.3096 12.5215 15.1852 12.1163 15.86Z" fill="#BCABA4"/>
</svg>
