<svg width="45" height="45" viewBox="0 0 45 45" fill="none" xmlns="http://www.w3.org/2000/svg">
<path d="M41.0473 32.7906C41.0473 27.8576 39.0932 23.1267 35.6149 19.6386C32.1367 16.1505 27.419 14.1909 22.5 14.1909C17.581 14.1909 12.8633 16.1505 9.38506 19.6386C5.90676 23.1267 3.9527 27.8576 3.9527 32.7906C3.9527 33.8852 3.06786 34.7725 1.97635 34.7725C0.884844 34.7725 1.67129e-06 33.8852 0 32.7906C9.01048e-07 26.8064 2.37051 21.0672 6.59007 16.8357C10.8096 12.6042 16.5326 10.2271 22.5 10.2271C28.4674 10.2271 34.1904 12.6042 38.4099 16.8357C42.6295 21.0672 45 26.8064 45 32.7906C45 33.8852 44.1152 34.7725 43.0236 34.7725C41.9321 34.7725 41.0473 33.8852 41.0473 32.7906Z" fill="black" fill-opacity="0.4"/>
<path d="M3.9527 32.7906C3.9527 29.2929 4.93615 25.8662 6.79014 22.9036C8.64414 19.9411 11.2935 17.5627 14.4343 16.0417C17.575 14.5207 21.0797 13.9186 24.5462 14.3045C28.0127 14.6904 31.3005 16.0486 34.0321 18.2233C34.887 18.9039 36.1302 18.7607 36.8089 17.9034C37.4876 17.0461 37.3447 15.7994 36.4898 15.1188C33.176 12.4806 29.1876 10.8329 24.9824 10.3648C20.7771 9.89668 16.5254 10.6271 12.7153 12.4723C8.90528 14.3175 5.69121 17.2026 3.44211 20.7966C1.193 24.3905 4.27444e-07 28.5475 4.27444e-07 32.7906C4.27444e-07 33.8852 0.884843 34.7725 1.97635 34.7725C3.06786 34.7725 3.9527 33.8852 3.9527 32.7906Z" fill="black"/>
</svg>
