<svg width="16" height="17" viewBox="0 0 16 17" fill="none" xmlns="http://www.w3.org/2000/svg">
<path fill-rule="evenodd" clip-rule="evenodd" d="M9.41827 0C9.55938 0.000160441 9.68291 0.123515 9.68291 0.264648V1.53516C9.68291 1.67629 9.55938 1.79964 9.41827 1.7998H8.69463V2.57715C12.2957 2.98338 15.1028 6.05471 15.1204 9.76172C15.1204 13.7513 11.8717 16.999 7.88213 16.999C3.89254 16.999 0.644833 13.7513 0.644828 9.76172C0.644828 7.99644 1.28001 6.3725 2.33916 5.11914L2.00323 4.7832L1.49151 5.2959C1.43858 5.3486 1.36764 5.36621 1.29717 5.36621C1.22688 5.36615 1.15663 5.34842 1.10381 5.2959L0.0793986 4.27148C-0.0264391 4.16557 -0.0264933 4.00628 0.0793986 3.90039L1.47393 2.54199C1.57985 2.43607 1.7391 2.43607 1.84502 2.54199L2.86846 3.56543C2.97438 3.67135 2.97438 3.8306 2.86846 3.93652L2.37432 4.43066L2.67413 4.73047C3.82148 3.56546 5.33988 2.77142 7.05205 2.57715V1.7998H6.32842C6.18731 1.79965 6.06377 1.67629 6.06377 1.53516V0.264648C6.06377 0.123512 6.18731 0.000155454 6.32842 0H9.41827ZM7.86455 4.53613C4.96946 4.53613 2.62143 6.88421 2.62139 9.7793C2.62139 12.6744 4.96944 15.0225 7.86455 15.0225C10.7597 15.0224 13.1253 12.6568 13.1253 9.76172C13.1253 8.2612 12.5075 6.91909 11.5013 5.96582L8.62334 9.26758C8.71161 9.4088 8.76495 9.58519 8.76495 9.76172C8.76494 10.256 8.37642 10.6621 7.88213 10.6621C7.38786 10.6621 6.98174 10.256 6.98174 9.76172C6.98174 9.26744 7.38786 8.86135 7.88213 8.86133C7.98787 8.86133 8.1113 8.8964 8.21709 8.93164L11.0774 5.64844C10.1948 4.95998 9.0826 4.53614 7.86455 4.53613ZM7.86455 9.39062C7.65272 9.39062 7.49346 9.56753 7.49346 9.76172C7.49346 9.97356 7.65272 10.1328 7.86455 10.1328C8.07637 10.1328 8.23565 9.97354 8.23565 9.76172C8.23565 9.56755 8.07637 9.39065 7.86455 9.39062ZM0.644828 4.07715L1.29717 4.74805L1.70342 4.32422L1.89776 4.12988L2.28643 3.74219L1.63311 3.08887L0.644828 4.07715ZM6.59307 1.27051H7.31768C7.45869 1.27072 7.58221 1.37652 7.59991 1.53516V2.54199H8.16436V1.53516C8.16446 1.39414 8.28801 1.27074 8.42901 1.27051H9.15362V0.529297H6.59307V1.27051Z" fill="#5A5A5A"/>
</svg>
