<svg width="30" height="29" viewBox="0 0 30 29" fill="none" xmlns="http://www.w3.org/2000/svg">
<path fill-rule="evenodd" clip-rule="evenodd" d="M22.9443 9.53503C23.9862 11.2794 24.5805 13.2536 24.6747 15.2823C24.7689 17.311 24.36 19.3316 23.4843 21.1647C22.6085 22.9978 21.2931 24.5868 19.6546 25.7907C18.0161 26.9945 16.1053 27.776 14.0917 28.0659C13.365 28.1186 11.4399 28.0878 10.5682 28.0659C7.4812 27.6143 4.67944 26.0141 2.72515 23.5862C0.770865 21.1583 -0.191337 18.0825 0.0316205 14.9759C0.254578 11.8693 1.6462 8.9618 3.92724 6.83683C6.20828 4.71187 9.20996 3.52665 12.33 3.51903C15.4343 3.51525 18.4258 4.6814 20.706 6.7843L23.9717 3.52431H21.1738C20.7056 3.52431 20.2566 3.33866 19.9256 3.00819C19.5945 2.67772 19.4086 2.22951 19.4086 1.76216C19.4086 1.2948 19.5945 0.846592 19.9256 0.516124C20.2566 0.185655 20.7056 0 21.1738 0H28.2348C28.7029 0 29.1519 0.185655 29.483 0.516124C29.814 0.846592 30 1.2948 30 1.76216V8.81078C30 9.27814 29.814 9.72635 29.483 10.0568C29.1519 10.3873 28.7029 10.5729 28.2348 10.5729C27.7666 10.5729 27.3176 10.3873 26.9865 10.0568C26.6555 9.72635 26.4695 9.27814 26.4695 8.81078V6.016L22.9461 9.53503H22.9443ZM18.571 22.0843C16.9158 23.7366 14.6708 24.6649 12.33 24.6649C9.9891 24.6649 7.74412 23.7366 6.08889 22.0843C4.43366 20.4319 3.50376 18.1909 3.50376 15.8541C3.50376 13.5174 4.43366 11.2763 6.08889 9.62396C7.74412 7.97162 9.9891 7.04334 12.33 7.04334C14.6708 7.04334 16.9158 7.97162 18.571 9.62396C20.2263 11.2763 21.1562 13.5174 21.1562 15.8541C21.1562 18.1909 20.2263 20.4319 18.571 22.0843Z" fill="#607B5C"/>
</svg>
