<svg width="62" height="55" viewBox="0 0 62 55" fill="none" xmlns="http://www.w3.org/2000/svg">
<path d="M41.267 27.4877C42.6308 23.2339 41.9924 17.9391 41.5028 15.8234L39.1712 14.3446L36.8396 12.8659C31.2651 14.307 26.8738 17.4113 25.4333 18.8938C23.9927 20.3763 21.2927 24.246 22.1838 27.7953C22.8439 30.4247 25.0472 34.5627 28.2189 35.866C29.3287 36.322 30.5569 36.431 31.8791 36.007C36.9804 34.3711 39.5623 32.805 41.267 27.4877Z" fill="#B9502F"/>
<path d="M41.4115 5.96156L36.8396 12.8659L39.1712 14.3446L41.5028 15.8234L46.0747 8.91905C47.7526 9.12072 48.7477 7.70829 49.0716 6.78793C49.1142 6.66688 49.1452 6.55435 49.1646 6.45512C49.6029 4.21409 47.0347 3.22602 45.9977 3.56016C45.2668 1.80639 44.1672 1.2845 42.0794 2.15461C40.4091 2.85069 40.9382 4.98261 41.4115 5.96156Z" fill="#FED5B7"/>
<path d="M42.0446 2.071C43.0967 1.63253 43.9204 1.53559 44.5798 1.78882C45.2221 2.03556 45.6845 2.60581 46.0492 3.45168C46.3179 3.38504 46.6573 3.39282 47.0105 3.46784C47.4009 3.55078 47.8164 3.71732 48.1851 3.96693C48.9244 4.46752 49.4811 5.30807 49.2534 6.47239C49.233 6.57658 49.2007 6.69343 49.1569 6.81793C48.9909 7.28965 48.6535 7.88674 48.141 8.34172C47.6375 8.78865 46.9629 9.09951 46.1196 9.01473L41.5994 15.8411C42.0895 17.9888 42.7159 23.2644 41.3532 27.5152C40.4974 30.1846 39.4181 31.9222 37.9051 33.197C36.3945 34.4697 34.4592 35.2746 31.9068 36.0931C30.5629 36.524 29.3126 36.4131 28.1845 35.9495C26.5757 35.2884 25.2196 33.9122 24.1846 32.3785C23.1491 30.8439 22.4288 29.1424 22.0961 27.8173C21.6435 26.0144 22.1041 24.137 22.8522 22.5311C23.6006 20.9245 24.6419 19.5782 25.3683 18.8307C26.8177 17.3391 31.2088 14.236 36.7831 12.7871L41.308 5.95386C41.0742 5.45427 40.8339 4.68753 40.8511 3.9498C40.869 3.18437 41.1661 2.43709 42.0446 2.071ZM36.8245 12.9632C31.2837 14.4043 26.9238 17.4896 25.4982 18.9567C24.7841 19.6916 23.7551 21.0216 23.0162 22.6077C22.2769 24.1946 21.833 26.0268 22.2715 27.7732C22.5989 29.0774 23.3104 30.7597 24.3344 32.2772C25.3591 33.7957 26.6906 35.14 28.2534 35.7822C29.3447 36.2306 30.551 36.3377 31.8514 35.9207C34.4003 35.1033 36.3066 34.3071 37.7885 33.0586C39.2679 31.812 40.332 30.1079 41.1809 27.4601C42.5299 23.2523 41.9093 18.0115 41.4224 15.8795L36.8245 12.9632ZM42.1142 2.23802C41.3224 2.56802 41.0489 3.23474 41.0321 3.95403C41.0152 4.67754 41.2603 5.44084 41.493 5.92216L41.5154 5.96854L41.4869 6.01141L36.9659 12.8389L41.4762 15.6993L46.0301 8.82249L46.0855 8.82908C46.894 8.92626 47.5374 8.63564 48.0209 8.20647C48.5063 7.77559 48.8283 7.20636 48.9862 6.75777C49.0275 6.64017 49.0573 6.53193 49.0758 6.43766C49.2864 5.36096 48.7781 4.58695 48.0837 4.11678C47.7355 3.88103 47.3418 3.72312 46.9728 3.64474C46.6022 3.56603 46.2644 3.56915 46.0254 3.64617L45.9462 3.67169L45.9142 3.59487C45.5528 2.72775 45.1086 2.18587 44.515 1.95784C43.9199 1.72926 43.1498 1.80641 42.1142 2.23802Z" fill="black"/>
<path d="M47.2067 46.4415C48.5035 45.5368 51.079 42.8406 51.0066 39.294C50.9342 35.7474 49.5289 33.2925 48.8352 32.5084L39.8782 23.5514L38.0687 21.7419C35.9878 20.4752 30.2155 18.3219 23.7737 19.8419C15.7214 21.7419 13.0072 25.3608 10.2024 27.8941C7.39772 30.4274 5.6787 35.494 5.49775 38.6606C5.35299 41.1939 5.79933 42.7923 6.0406 43.2748L9.56913 47.1652L47.2067 46.4415Z" fill="#B9502F"/>
<path d="M23.7528 19.7537C30.2228 18.2271 36.0194 20.3884 38.1157 21.6645L38.1251 21.6701L48.8992 32.4443L48.9012 32.4464L48.9029 32.4483C49.611 33.2488 51.0243 35.7244 51.0971 39.2921C51.1338 41.0882 50.4998 42.6664 49.696 43.9075C48.8926 45.148 47.9162 46.0567 47.2585 46.5156L47.2359 46.5313L9.57091 47.2556L9.52973 47.2563L5.97364 43.3355L5.96516 43.3263L5.95968 43.3152C5.70904 42.8139 5.26217 41.1983 5.40747 38.6554C5.49861 37.0605 5.97644 34.9925 6.78244 33.0058C7.5882 31.0198 8.72558 29.1061 10.1419 27.8269C11.5357 26.5679 12.9267 25.0195 14.9676 23.5569C17.0131 22.0909 19.7156 20.7064 23.7528 19.7537ZM38.0124 21.8135C35.939 20.5554 30.1986 18.4189 23.7945 19.9299C19.7796 20.8773 17.0987 22.2521 15.0729 23.7039C13.0425 25.159 11.6739 26.6868 10.2631 27.9612C8.87465 29.2152 7.75013 31.1015 6.94996 33.0737C6.15004 35.0453 5.67788 37.0939 5.58807 38.6656C5.44493 41.1705 5.88315 42.7468 6.11643 43.2237L9.60837 47.0738L47.1767 46.3516C47.8156 45.9008 48.7628 45.0158 49.5442 43.8093C50.3342 42.5895 50.9519 41.0463 50.9162 39.2958C50.8442 35.7718 49.4478 33.3383 48.7683 32.5694L38.0124 21.8135Z" fill="black"/>
<path d="M20.6071 36.851C20.6071 37.3507 20.202 37.7558 19.7023 37.7558C19.2026 37.7558 18.7976 37.3507 18.7976 36.851C18.7976 36.3514 19.2026 35.9463 19.7023 35.9463C20.202 35.9463 20.6071 36.3514 20.6071 36.851Z" fill="#9D4428"/>
<path d="M46.121 37.1227C49.0162 33.7208 50.4638 28.5879 50.8257 26.4467L49.2424 24.1848L47.6591 21.9229C41.9592 21.1086 36.7116 22.2848 34.8116 23.0991C32.9117 23.9134 28.9308 26.4467 28.3879 30.0657C27.9858 32.7466 28.4277 37.4137 30.854 39.8369C31.7029 40.6847 32.7948 41.2578 34.1783 41.375C39.5163 41.8274 42.502 41.375 46.121 37.1227Z" fill="#B9502F"/>
<path d="M54.5352 17.3086L47.6591 21.9229L49.2424 24.1848L50.8257 26.4467L57.7018 21.8324C59.173 22.664 60.6349 21.743 61.2879 21.0181C61.3738 20.9227 61.4457 20.8308 61.5017 20.7467C62.7684 18.8467 60.7779 16.9467 59.6922 16.8562C59.6922 14.9563 58.878 14.0515 56.6161 14.0515C54.8066 14.0515 54.4749 16.2229 54.5352 17.3086Z" fill="#FED5B7"/>
<path d="M56.6161 13.9609C57.7559 13.9609 58.5535 14.1883 59.0647 14.6757C59.5628 15.1506 59.7702 15.8548 59.7815 16.7759C60.0551 16.8178 60.3654 16.9555 60.6625 17.1606C60.991 17.3874 61.3105 17.7009 61.5547 18.0731C62.0446 18.8196 62.2351 19.8096 61.577 20.7967C61.5181 20.8851 61.4434 20.9805 61.3551 21.0786C61.0203 21.4502 60.4792 21.8715 59.8311 22.0943C59.1945 22.3132 58.4522 22.3406 57.7064 21.9379L50.908 26.5002C50.5342 28.6711 49.083 33.7817 46.1899 37.1812C44.3731 39.3159 42.7085 40.5047 40.8215 41.0993C38.9376 41.6931 36.8416 41.6915 34.1707 41.4651C32.7645 41.346 31.653 40.7626 30.7901 39.9007C29.5594 38.6716 28.837 36.8796 28.4717 35.0658C28.1061 33.251 28.0958 31.4033 28.2985 30.0522C28.5742 28.2139 29.7216 26.6581 31.0299 25.4636C32.3388 24.2685 33.8179 23.4265 34.7759 23.0158C36.6875 22.1966 41.9345 21.0215 47.6372 21.8284L54.4426 17.2617C54.4189 16.7106 54.492 15.9104 54.7917 15.2361C55.1027 14.5364 55.6644 13.9609 56.6161 13.9609ZM47.6076 22.0068C41.9389 21.2057 36.7276 22.3763 34.8473 23.1821C33.9054 23.5858 32.444 24.4176 31.1518 25.5974C29.859 26.7778 28.7444 28.2983 28.4773 30.0789C28.2778 31.4088 28.2874 33.2352 28.6489 35.0299C29.0106 36.8257 29.7225 38.5788 30.918 39.7728C31.7529 40.6065 32.8251 41.1694 34.1859 41.2847C36.853 41.5107 38.9189 41.5091 40.7671 40.9267C42.6122 40.3452 44.2499 39.1816 46.0521 37.064C48.9159 33.699 50.3592 28.6227 50.7299 26.4675L47.6076 22.0068ZM56.6161 14.1419C55.7582 14.1419 55.2493 14.6521 54.9571 15.3096C54.6632 15.9709 54.5958 16.7698 54.6255 17.3036L54.6283 17.355L54.5855 17.3836L47.7859 21.9466L50.8488 26.3219L57.6977 21.7261L57.7463 21.7534C58.4553 22.1542 59.1609 22.1334 59.7723 21.9233C60.3861 21.7123 60.9023 21.3107 61.2206 20.9574C61.304 20.8647 61.3732 20.7763 61.4264 20.6964C62.035 19.7835 61.8636 18.8735 61.4035 18.1724C61.1728 17.8209 60.8702 17.5237 60.5597 17.3094C60.2479 17.0942 59.9349 16.9671 59.6846 16.9463L59.6018 16.9394V16.8561C59.6018 15.9167 59.4001 15.2457 58.94 14.8068C58.4786 14.3669 57.7381 14.1419 56.6161 14.1419Z" fill="black"/>
<path d="M34.5402 46.5319C34.6853 45.8162 34.7596 44.8188 34.6433 43.7272C34.3969 41.415 33.2949 38.6801 30.1974 37.3035C29.2926 40.9225 28.9307 43.1843 32.3688 46.5319C35.1192 49.21 34.9624 47.6478 34.5402 46.5319Z" fill="#5EE95C"/>
<path d="M34.6433 43.7272C34.7596 44.8188 34.6853 45.8162 34.5402 46.5319C34.8116 46.6525 35.9154 46.8214 38.1592 46.5319C40.403 46.2424 41.929 43.878 42.4115 42.732C38.4306 41.1396 35.574 42.732 34.6433 43.7272Z" fill="#5EE95C"/>
<path d="M30.2342 37.2209C33.2878 38.5781 34.4236 41.2398 34.7111 43.531C35.7826 42.5132 38.5998 41.11 42.4451 42.6481L42.5306 42.6823L42.4949 42.7673C42.25 43.349 41.7422 44.2359 41.0118 45.0152C40.2817 45.794 39.3214 46.4733 38.1709 46.6218C37.0451 46.7671 36.203 46.7976 35.6068 46.7762C35.1846 46.7611 34.8811 46.7197 34.6863 46.6727C34.7656 46.9066 34.8298 47.1514 34.8556 47.3687C34.8717 47.5043 34.8737 47.6338 34.8528 47.7451C34.832 47.8561 34.7865 47.9589 34.6996 48.0263C34.6109 48.095 34.4953 48.1147 34.361 48.0924C34.2281 48.0702 34.0697 48.006 33.8823 47.8969C33.5072 47.6786 32.9949 47.268 32.3057 46.5969C30.5781 44.9147 29.7954 43.4956 29.5651 42.0337C29.3357 40.5767 29.6577 39.0892 30.1096 37.2817L30.1357 37.1772L30.2342 37.2209ZM30.2589 37.431C29.8204 39.1936 29.5254 40.6175 29.744 42.0055C29.9661 43.4161 30.7215 44.8018 32.4319 46.4672C33.1179 47.1351 33.6175 47.5335 33.9733 47.7405C34.1514 47.8442 34.2882 47.8968 34.3907 47.9139C34.4918 47.9307 34.5516 47.9122 34.5888 47.8833C34.6278 47.8531 34.6587 47.7988 34.675 47.7119C34.6912 47.6254 34.6909 47.516 34.6759 47.3901C34.646 47.1387 34.5597 46.8394 34.4556 46.564L34.4464 46.5396L34.4515 46.514C34.5947 45.8074 34.6686 44.8193 34.5533 43.7369C34.3116 41.469 33.242 38.8039 30.2589 37.431ZM42.291 42.7821C38.4322 41.2775 35.6662 42.7949 34.7372 43.7598C34.8428 44.791 34.7804 45.7371 34.6492 46.4428C34.7121 46.439 34.7873 46.4283 34.8742 46.4099C35.0121 46.3808 35.1738 46.3341 35.3538 46.2733C35.7136 46.1518 36.1403 45.9755 36.5838 45.7755C37.4707 45.3757 38.4186 44.8837 39.0203 44.5527L39.1076 44.7114C38.503 45.0439 37.5507 45.5381 36.6582 45.9404C36.2122 46.1415 35.7795 46.3205 35.4117 46.4447C35.284 46.4879 35.1633 46.5242 35.0523 46.5531C35.2036 46.5719 35.3898 46.5875 35.6133 46.5955C36.1978 46.6164 37.0296 46.5865 38.1475 46.4423C39.2407 46.3012 40.1653 45.6535 40.8798 44.8913C41.5589 44.1668 42.041 43.3461 42.291 42.7821ZM31.1002 40.8507C31.0321 41.1742 31.0749 41.5921 31.1976 42.0638C31.3198 42.5336 31.5189 43.0481 31.7544 43.5607C32.2253 44.5857 32.8378 45.5945 33.2578 46.2095L33.1083 46.3117C32.6839 45.6902 32.0659 44.6724 31.5899 43.6361C31.3518 43.118 31.1483 42.5931 31.0225 42.1094C30.8971 41.6275 30.8465 41.1776 30.9231 40.8136L31.1002 40.8507Z" fill="black"/>
<path d="M12.9135 45.7689C12.4682 45.1901 11.7639 44.48 10.8633 43.8521C8.95595 42.5222 6.16842 41.5612 3.09806 42.9974C5.23748 46.0534 6.70808 47.8096 11.4899 47.4084C15.3153 47.0875 14.0329 46.1817 12.9135 45.7689Z" fill="#5EE95C"/>
<path d="M10.8633 43.8521C11.7639 44.48 12.4682 45.1901 12.9135 45.7689C13.1826 45.643 14.0338 44.9203 15.2863 43.0362C16.5388 41.1522 15.754 38.4497 15.2051 37.334C11.3927 39.2959 10.7221 42.4969 10.8633 43.8521Z" fill="#5EE95C"/>
<path d="M3.05974 42.9153C6.0866 41.4995 8.8411 42.387 10.7596 43.6721C10.6936 42.1957 11.4811 39.1486 15.1637 37.2535L15.2455 37.2113L15.2863 37.294C15.565 37.8603 15.9018 38.8253 16.0113 39.8877C16.1207 40.9496 16.004 42.1201 15.3617 43.0862C14.7333 44.0315 14.2043 44.6873 13.7973 45.1235C13.509 45.4324 13.2788 45.6344 13.1156 45.7506C13.3442 45.8441 13.5711 45.9561 13.7521 46.0791C13.8651 46.1559 13.9641 46.2393 14.0345 46.3281C14.1046 46.4165 14.1524 46.5182 14.1463 46.6281C14.1401 46.7401 14.0791 46.8404 13.9742 46.9271C13.8704 47.0129 13.718 47.0904 13.5128 47.1604C13.102 47.3005 12.4561 47.418 11.4975 47.4984C9.09466 47.7 7.50993 47.3606 6.25515 46.576C5.00455 45.794 4.0925 44.5755 3.02396 43.0493L2.96225 42.961L3.05974 42.9153ZM3.23461 43.0344C4.278 44.5211 5.15974 45.6775 6.35105 46.4224C7.56186 47.1796 9.10337 47.5177 11.4823 47.3181C12.4364 47.2381 13.0647 47.122 13.4544 46.9891C13.6494 46.9226 13.7788 46.8538 13.8589 46.7876C13.9379 46.7223 13.9631 46.665 13.9657 46.618C13.9685 46.5688 13.9478 46.5098 13.8928 46.4405C13.8382 46.3715 13.7553 46.3001 13.6505 46.2289C13.441 46.0866 13.1584 45.9555 12.8822 45.8536L12.8578 45.8446L12.8418 45.8239C12.4021 45.2525 11.7045 44.5488 10.8116 43.9262C8.9407 42.6218 6.22705 41.6821 3.23461 43.0344ZM15.1638 37.4577C11.4977 39.3849 10.83 42.4683 10.9495 43.8024C11.7974 44.3988 12.4708 45.0662 12.9176 45.6279C12.956 45.578 12.9972 45.5142 13.0403 45.4365C13.1087 45.3133 13.1795 45.1605 13.2516 44.9848C13.3957 44.6334 13.5424 44.1957 13.6822 43.7297C13.9618 42.7978 14.2117 41.7596 14.3564 41.0882L14.5334 41.1263C14.3881 41.8009 14.1368 42.8439 13.8555 43.7816C13.7149 44.2502 13.5663 44.6943 13.419 45.0534C13.3679 45.1781 13.3162 45.2931 13.2652 45.3958C13.3787 45.2939 13.5124 45.1636 13.665 45C14.064 44.5724 14.5869 43.9247 15.2109 42.9861C15.8211 42.0681 15.9383 40.9454 15.8312 39.9061C15.7294 38.9184 15.4258 38.0163 15.1638 37.4577ZM6.36831 44.6412C6.56795 44.9048 6.91155 45.1465 7.34813 45.3631C7.78303 45.5788 8.30208 45.7658 8.84346 45.9241C9.92617 46.2406 11.0895 46.4395 11.8293 46.5256L11.8084 46.7054C11.0609 46.6184 9.88716 46.4177 8.79257 46.0978C8.24531 45.9378 7.71546 45.7473 7.26774 45.5252C6.82174 45.3039 6.44883 45.0471 6.2242 44.7506L6.36831 44.6412Z" fill="black"/>
<path d="M17.4585 45.912C17.551 45.9063 17.6214 45.8281 17.6214 45.7354V40.7638C17.6214 40.6107 17.4432 40.5268 17.3252 40.6243L13.5843 43.7146C13.5133 43.7732 13.497 43.8757 13.5513 43.9502C14.1245 44.7374 15.5537 46.0304 17.4585 45.912Z" fill="#FCD201"/>
<path d="M19.2645 40.5111C19.1569 40.3934 18.9615 40.4629 18.9512 40.622L18.6284 45.6256C18.6219 45.7261 18.6979 45.8127 18.7986 45.8153C19.9385 45.8454 22.0286 45.6317 22.7179 44.5548C22.7571 44.4934 22.749 44.4148 22.7023 44.3589C22.0396 43.5649 20.2965 41.6405 19.2645 40.5111Z" fill="#FCD201"/>
<path d="M23.5677 43.4099C23.6317 43.4855 23.7447 43.4957 23.8181 43.4293C24.515 42.7985 25.646 41.3781 25.5921 39.8075C25.5891 39.7197 25.5206 39.6501 25.433 39.6434C24.5374 39.5753 22.0581 39.4639 20.5661 39.4014C20.4086 39.3948 20.3195 39.5788 20.4215 39.699L23.5677 43.4099Z" fill="#FCD201"/>
<path d="M25.4844 38.3736C25.5874 38.3821 25.6767 38.3028 25.6758 38.1994C25.668 37.2513 25.3956 35.4553 24.3359 34.4198C24.2737 34.359 24.1774 34.3556 24.11 34.4105C23.4033 34.9864 21.5613 36.6515 20.4597 37.6577C20.3432 37.7641 20.4102 37.9577 20.5675 37.9706L25.4844 38.3736Z" fill="#FCD201"/>
<path d="M27.3022 44.7224C30.1974 41.2383 29.2022 34.4082 26.3975 31.6035L24.9499 32.9031C26.5784 35.0333 28.7498 40.3796 24.407 44.7224C18.9785 50.1509 13.6989 46.0795 12.0864 44.451L10.4739 45.8986C11.831 47.0747 21.9642 51.1461 27.3022 44.7224Z" fill="#FCD201"/>
<path fill-rule="evenodd" clip-rule="evenodd" d="M24.407 44.7224C28.7498 40.3796 26.5784 35.0333 24.9499 32.9031L12.0864 44.451C13.6989 46.0795 18.9785 50.1509 24.407 44.7224ZM17.3252 40.6243C17.4432 40.5268 17.6214 40.6107 17.6214 40.7638V45.7354C17.6214 45.8281 17.551 45.9063 17.4585 45.912C15.5537 46.0304 14.1245 44.7374 13.5513 43.9502C13.497 43.8757 13.5133 43.7732 13.5843 43.7146L17.3252 40.6243ZM18.7986 45.8153C18.6979 45.8127 18.6219 45.7261 18.6284 45.6256L18.9512 40.622C18.9615 40.4629 19.1569 40.3934 19.2645 40.5111C20.2965 41.6405 22.0396 43.5649 22.7023 44.3589C22.749 44.4148 22.7571 44.4934 22.7179 44.5548C22.0286 45.6317 19.9385 45.8454 18.7986 45.8153ZM25.433 39.6434C25.5206 39.6501 25.5891 39.7197 25.5921 39.8075C25.646 41.3781 24.515 42.7985 23.8181 43.4293C23.7447 43.4957 23.6317 43.4855 23.5677 43.4099L20.4215 39.699C20.3195 39.5788 20.4086 39.3948 20.5661 39.4014C22.0581 39.4639 24.5374 39.5753 25.433 39.6434ZM24.11 34.4105C24.1774 34.3556 24.2737 34.359 24.3359 34.4198C25.3956 35.4553 25.668 37.2513 25.6758 38.1994C25.6767 38.3028 25.5874 38.3821 25.4844 38.3736L20.5675 37.9706C20.4102 37.9577 20.3432 37.7641 20.4597 37.6577C21.5613 36.6515 23.4033 34.9864 24.11 34.4105Z" fill="#EBF7B7"/>
<path d="M26.4614 31.5396C27.8832 32.9614 28.8386 35.3926 29.0774 37.8997C29.3162 40.4069 28.8403 43.013 27.3718 44.7802C24.6755 48.025 20.7708 48.614 17.3855 48.2504C15.692 48.0686 14.124 47.6482 12.8941 47.1994C11.6681 46.752 10.7672 46.2725 10.4147 45.967L10.3371 45.8999L26.4008 31.479L26.4614 31.5396ZM25.072 32.9149C25.8829 34.0012 26.8065 35.8531 27.0078 37.9745C27.2136 40.1438 26.6636 42.5938 24.471 44.7864C21.7342 47.5232 19.0247 47.8713 16.794 47.3209C14.6252 46.7858 12.9188 45.4039 12.083 44.5754L10.6133 45.8947C10.9888 46.1811 11.823 46.6158 12.9563 47.0294C14.1748 47.474 15.7283 47.8905 17.4049 48.0705C20.7599 48.4308 24.5909 47.8436 27.2326 44.6647C28.6592 42.9479 29.1334 40.3968 28.8972 37.9169C28.6644 35.4728 27.7438 33.1199 26.3936 31.7285L25.072 32.9149ZM12.2182 44.454C13.0446 45.2714 14.7192 46.6226 16.8373 47.1453C19.0067 47.6806 21.6513 47.3502 24.343 44.6585C26.4932 42.5083 27.0289 40.1137 26.8276 37.9916C26.6307 35.9172 25.7289 34.1024 24.9366 33.0363L12.2182 44.454ZM17.5309 40.7638C17.5309 40.6873 17.4418 40.6453 17.3828 40.694L13.6419 43.7843C13.6052 43.8146 13.6002 43.8638 13.6244 43.897C14.189 44.6724 15.5923 45.9373 17.4528 45.8217C17.4955 45.8191 17.5309 45.7825 17.5309 45.7353V40.7638ZM18.861 40.6163C18.8763 40.3785 19.1693 40.273 19.3312 40.4502C20.3627 41.579 22.1073 43.505 22.7717 44.301C22.8415 44.3845 22.8563 44.5061 22.794 44.6035C22.4298 45.1725 21.7055 45.5025 20.9488 45.6882C20.1878 45.8749 19.3718 45.9211 18.7961 45.9059C18.6421 45.9018 18.5285 45.7693 18.5382 45.6198L18.861 40.6163ZM19.1976 40.5723C19.1445 40.5141 19.0466 40.5476 19.0414 40.6279L18.7187 45.6314C18.7154 45.6828 18.7537 45.7236 18.8009 45.7249C19.3652 45.7398 20.1644 45.6942 20.9057 45.5123C21.6513 45.3294 22.3166 45.0139 22.6417 44.506C22.6578 44.4807 22.6564 44.4452 22.6328 44.4169C21.9716 43.6248 20.2302 41.7023 19.1976 40.5723ZM20.5698 39.3111C22.0611 39.3735 24.5423 39.4849 25.4399 39.5532C25.5722 39.5633 25.6778 39.6694 25.6825 39.8045C25.7102 40.6121 25.4334 41.3767 25.0651 42.016C24.6966 42.6555 24.2333 43.1756 23.8788 43.4964C23.7656 43.5989 23.5941 43.581 23.4987 43.4685L20.3524 39.7576C20.2001 39.578 20.3326 39.3012 20.5698 39.3111ZM20.5622 39.4919C20.4845 39.4887 20.439 39.5797 20.4904 39.6405L23.6367 43.3515C23.6694 43.3901 23.7239 43.3927 23.7574 43.3623C24.0998 43.0524 24.5504 42.5467 24.9081 41.9257C25.2661 41.3044 25.5279 40.5736 25.5017 39.8106C25.5003 39.7702 25.4689 39.7369 25.4261 39.7336C24.5324 39.6656 22.0549 39.5544 20.5622 39.4919ZM24.0527 34.3404C24.1551 34.257 24.3035 34.2616 24.3992 34.3551C24.9443 34.8878 25.2833 35.612 25.4872 36.3173C25.6914 37.0233 25.7623 37.7177 25.7662 38.1987C25.7676 38.3578 25.6304 38.4763 25.477 38.4638L20.5601 38.0609C20.3249 38.0416 20.2232 37.7514 20.3987 37.591C21.4994 36.5857 23.3435 34.9183 24.0527 34.3404ZM24.2727 34.4846C24.244 34.4566 24.1995 34.4543 24.167 34.4808C23.4628 35.0546 21.6232 36.7178 20.5208 37.7246C20.4633 37.7772 20.4954 37.8739 20.5749 37.8805L25.4918 38.2835C25.5444 38.2878 25.5857 38.2479 25.5853 38.2003C25.5814 37.7333 25.5123 37.0556 25.3133 36.3677C25.1142 35.679 24.7872 34.9874 24.2727 34.4846ZM17.7119 45.7353C17.7119 45.8736 17.6065 45.9935 17.4641 46.0023C15.5152 46.1234 14.0599 44.8026 13.4781 44.0036C13.3938 43.8879 13.4213 43.732 13.5267 43.6449L17.2676 40.5546C17.4446 40.4084 17.7118 40.5343 17.7119 40.7638V45.7353Z" fill="black"/>
<path d="M56.4351 46.4414H4.3216C6.10094 48.3414 11.0167 52.1413 16.4452 52.1413H44.3115C47.5686 51.5985 53.215 50.1871 54.8472 48.5223C55.5622 47.7506 56.0935 47.0251 56.4351 46.4414Z" fill="#95ACB4"/>
<path d="M13.6405 54.2222H42.3211C48.293 54.0011 52.5329 51.02 54.8472 48.5223C53.215 50.1871 47.5686 51.5985 44.3115 52.1413H16.4452C11.0167 52.1413 6.10094 48.3414 4.3216 46.4414H0.15976C3.41686 51.8699 10.5041 53.8905 13.6405 54.2222Z" fill="#7F9299"/>
<path d="M56.5929 46.3511L56.5132 46.4873C56.1677 47.0775 55.6323 47.8082 54.9135 48.584C52.5873 51.0944 48.3262 54.0906 42.3244 54.3129H13.6357L13.631 54.3123C12.0531 54.1454 9.48719 53.5547 6.90649 52.3249C4.32586 51.0951 1.72295 49.2227 0.0821696 46.488L0 46.3511H56.5929ZM0.320903 46.532C1.94132 49.1518 4.46656 50.9618 6.98424 52.1616C9.5429 53.3809 12.0863 53.9664 13.6453 54.1319H42.3177C47.583 53.9369 51.4949 51.5855 53.9197 49.3237C53.644 49.4855 53.338 49.6434 53.0084 49.796C52.1938 50.1732 51.2291 50.524 50.2155 50.8391C48.1882 51.4693 45.9582 51.9587 44.3263 52.2307L44.3189 52.2319H16.4452C13.7105 52.2319 11.1091 51.275 8.97098 50.083C6.85407 48.9028 5.18522 47.4885 4.28271 46.532H0.320903ZM4.53329 46.532C5.44732 47.4712 7.04874 48.8043 9.05898 49.925C11.1807 51.1079 13.7515 52.051 16.4452 52.051H44.3039C45.9284 51.7799 48.1466 51.2928 50.1618 50.6663C51.1709 50.3526 52.1275 50.0045 52.9324 49.6318C53.7381 49.2588 54.3844 48.8643 54.781 48.4604C55.4371 47.7522 55.9366 47.0844 56.2752 46.532H4.53329Z" fill="black"/>
<path d="M22.7785 33.413C22.7785 33.9127 22.3734 34.3178 21.8737 34.3178C21.374 34.3178 20.969 33.9127 20.969 33.413C20.969 32.9134 21.374 32.5083 21.8737 32.5083C22.3734 32.5083 22.7785 32.9134 22.7785 33.413Z" fill="#9D4428"/>
<path d="M22.4166 27.6228C22.4166 28.1224 22.0115 28.5275 21.5118 28.5275C21.0121 28.5275 20.6071 28.1224 20.6071 27.6228C20.6071 27.1231 21.0121 26.718 21.5118 26.718C22.0115 26.718 22.4166 27.1231 22.4166 27.6228Z" fill="#9D4428"/>
<path d="M18.0738 29.4321C18.0738 29.9318 17.6687 30.3368 17.169 30.3368C16.6694 30.3368 16.2643 29.9318 16.2643 29.4321C16.2643 28.9324 16.6694 28.5273 17.169 28.5273C17.6687 28.5273 18.0738 28.9324 18.0738 29.4321Z" fill="#9D4428"/>
<path d="M16.8071 33.7749C16.8071 34.2745 16.402 34.6796 15.9024 34.6796C15.4027 34.6796 14.9976 34.2745 14.9976 33.7749C14.9976 33.2752 15.4027 32.8701 15.9024 32.8701C16.402 32.8701 16.8071 33.2752 16.8071 33.7749Z" fill="#9D4428"/>
<path d="M14.6357 36.851C14.6357 37.3507 14.2307 37.7558 13.731 37.7558C13.2313 37.7558 12.8262 37.3507 12.8262 36.851C12.8262 36.3514 13.2313 35.9463 13.731 35.9463C14.2307 35.9463 14.6357 36.3514 14.6357 36.851Z" fill="#9D4428"/>
</svg>
