<svg width="30" height="37" viewBox="0 0 30 37" fill="none" xmlns="http://www.w3.org/2000/svg">
<path d="M12.33 24.6649C14.6708 24.6649 16.9158 23.7366 18.571 22.0843C20.2263 20.4319 21.1562 18.1909 21.1562 15.8541C21.1562 13.5174 20.2263 11.2763 18.571 9.62396C16.9158 7.97162 14.6708 7.04334 12.33 7.04334C9.9891 7.04334 7.74412 7.97162 6.08889 9.62396C4.43366 11.2763 3.50376 13.5174 3.50376 15.8541C3.50376 18.1909 4.43366 20.4319 6.08889 22.0843C7.74412 23.7366 9.9891 24.6649 12.33 24.6649ZM22.9443 9.53503C23.9862 11.2794 24.5805 13.2536 24.6747 15.2823C24.7689 17.311 24.36 19.3316 23.4843 21.1647C22.6085 22.9978 21.2931 24.5868 19.6546 25.7907C18.0161 26.9945 16.1053 27.776 14.0917 28.0659L14.0952 28.1892V29.9514H15.8604C16.3286 29.9514 16.7776 30.137 17.1086 30.4675C17.4397 30.798 17.6257 31.2462 17.6257 31.7135C17.6257 32.1809 17.4397 32.6291 17.1086 32.9596C16.7776 33.29 16.3286 33.4757 15.8604 33.4757H14.0952V35.2378C14.0952 35.7052 13.9092 36.1534 13.5782 36.4839C13.2471 36.8143 12.7981 37 12.33 37C11.8618 37 11.4128 36.8143 11.0817 36.4839C10.7507 36.1534 10.5647 35.7052 10.5647 35.2378V33.4757H8.79947C8.3313 33.4757 7.88231 33.29 7.55126 32.9596C7.22022 32.6291 7.03424 32.1809 7.03424 31.7135C7.03424 31.2462 7.22022 30.798 7.55126 30.4675C7.88231 30.137 8.3313 29.9514 8.79947 29.9514H10.5647V28.1892C10.5647 28.1469 10.5647 28.1064 10.5682 28.0659C7.4812 27.6143 4.67944 26.0141 2.72515 23.5862C0.770865 21.1583 -0.191337 18.0825 0.0316205 14.9759C0.254578 11.8693 1.6462 8.9618 3.92724 6.83683C6.20828 4.71187 9.20996 3.52665 12.33 3.51903C15.4343 3.51525 18.4258 4.6814 20.706 6.7843L23.9717 3.52431H21.1738C20.7056 3.52431 20.2566 3.33866 19.9256 3.00819C19.5945 2.67772 19.4086 2.22951 19.4086 1.76216C19.4086 1.2948 19.5945 0.846592 19.9256 0.516124C20.2566 0.185655 20.7056 0 21.1738 0H28.2348C28.7029 0 29.1519 0.185655 29.483 0.516124C29.814 0.846592 30 1.2948 30 1.76216V8.81078C30 9.27814 29.814 9.72635 29.483 10.0568C29.1519 10.3873 28.7029 10.5729 28.2348 10.5729C27.7666 10.5729 27.3176 10.3873 26.9866 10.0568C26.6555 9.72635 26.4695 9.27814 26.4695 8.81078V6.016L22.9461 9.53503H22.9443Z" fill="#607B5C"/>
</svg>
