<svg width="28" height="22" viewBox="0 0 28 22" fill="none" xmlns="http://www.w3.org/2000/svg">
<path d="M15.3954 8.87073C15.3954 5.12431 12.4085 2.08723 8.72403 2.08723C5.03957 2.08723 2.05271 5.12431 2.05271 8.87073C2.05271 12.6172 5.03957 15.6542 8.72403 15.6542C10.975 15.6542 12.9658 14.5206 14.174 12.7843C14.9434 11.6785 15.3954 10.3283 15.3954 8.87073ZM17.4481 8.87073C17.4481 10.382 17.0739 11.8081 16.4162 13.0559C16.4162 13.0559 26.7664 19.5328 27 20.2664C27.2336 21 27.3804 21 27 21.5C26.6196 22 26.6691 22 25.8574 22C25.0457 22 15.241 14.7671 15.241 14.7671C13.6454 16.5889 11.3173 17.7415 8.72403 17.7415C3.90588 17.7415 0 13.7699 0 8.87073C0 3.97156 3.90588 0 8.72403 0C13.5422 0 17.4481 3.97156 17.4481 8.87073Z" fill="#607B5C"/>
</svg>
