<svg width="44" height="47" viewBox="0 0 44 47" fill="none" xmlns="http://www.w3.org/2000/svg">
<path d="M22 4.60791C11.8211 4.60791 3.5683 12.8607 3.5683 23.0396C3.5683 33.2185 11.8211 41.4713 22 41.4713C32.1789 41.4713 40.4317 33.2185 40.4317 23.0396C40.4317 12.8607 32.1789 4.60791 22 4.60791ZM22 32.2554C16.9105 32.2554 12.7841 28.129 12.7841 23.0396C12.7841 17.9501 16.9105 13.8238 22 13.8238C27.0894 13.8238 31.2158 17.9501 31.2158 23.0396C31.2158 28.129 27.0894 32.2554 22 32.2554Z" fill="#607B5C"/>
<path d="M28.7207 6.91188L27.7392 1.8639C27.5272 0.781043 26.5803 0 25.4767 0H18.5233C17.4197 0 16.4728 0.781043 16.2608 1.8639L15.2794 6.91188H28.7207Z" fill="#607B5C"/>
<path d="M15.2794 39.1672L16.2608 44.2152C16.4728 45.2981 17.4197 46.0791 18.5233 46.0791H25.4767C26.5803 46.0791 27.5272 45.2981 27.7392 44.2152L28.7207 39.1672H15.2794Z" fill="#607B5C"/>
<path d="M11.3926 9.15604L6.53121 7.48336C5.48751 7.12394 4.33784 7.55478 3.78489 8.50862L0.30821 14.5312C-0.242437 15.4873 -0.0396881 16.6992 0.792042 17.4226L4.67191 20.7956L11.3926 9.15604Z" fill="#607B5C"/>
<path d="M32.6074 36.9232L37.4688 38.5958C38.5125 38.9553 39.6621 38.5244 40.2151 37.5683L43.6918 31.5457C44.2424 30.5896 44.0397 29.3777 43.2079 28.6542L39.3281 25.2812L32.6074 36.9232Z" fill="#607B5C"/>
<path d="M4.67191 25.2837L0.792042 28.6567C-0.0396881 29.3801 -0.242437 30.592 0.30821 31.5482L3.78489 37.5707C4.33553 38.5269 5.48751 38.9554 6.53121 38.5983L11.3926 36.9256L4.67191 25.2837Z" fill="#607B5C"/>
<path d="M39.3281 20.7955L43.2079 17.4225C44.0397 16.6991 44.2424 15.4872 43.6918 14.531L40.2151 8.50848C39.6645 7.55234 38.5125 7.1238 37.4688 7.48091L32.6074 9.15359L39.3281 20.7955Z" fill="#607B5C"/>
</svg>
