<svg width="17" height="17" viewBox="0 0 17 17" fill="none" xmlns="http://www.w3.org/2000/svg">
<path fill-rule="evenodd" clip-rule="evenodd" d="M4.57692 0C4.93803 0 5.23077 0.29274 5.23077 0.653846V1.30769H11.7692V0.653846C11.7692 0.29274 12.062 0 12.4231 0C12.7841 0 13.0769 0.29274 13.0769 0.653846V1.30769H15.0385C16.1218 1.30769 17 2.1859 17 3.26923V15.0385C17 16.1218 16.1218 17 15.0385 17H1.96154C0.878207 17 0 16.1218 0 15.0385V3.26923C0 2.1859 0.878207 1.30769 1.96154 1.30769H3.92308V0.653846C3.92308 0.29274 4.21582 0 4.57692 0ZM11.7692 2.61538V3.26923C11.7692 3.63034 12.062 3.92308 12.4231 3.92308C12.7841 3.92308 13.0769 3.63034 13.0769 3.26923V2.61538H15.0385C15.3995 2.61538 15.6923 2.90812 15.6923 3.26923V5.23077H1.30769V3.26923C1.30769 2.90812 1.60043 2.61538 1.96154 2.61538H3.92308V3.26923C3.92308 3.63034 4.21582 3.92308 4.57692 3.92308C4.93803 3.92308 5.23077 3.63034 5.23077 3.26923V2.61538H11.7692ZM1.30769 6.53846V15.0385C1.30769 15.3995 1.60043 15.6923 1.96154 15.6923H15.0385C15.3995 15.6923 15.6923 15.3995 15.6923 15.0385V6.53846H1.30769ZM7.84615 8.5C7.84615 8.13889 8.13889 7.84615 8.5 7.84615C8.86111 7.84615 9.15385 8.13889 9.15385 8.5C9.15385 8.86111 8.86111 9.15385 8.5 9.15385C8.13889 9.15385 7.84615 8.86111 7.84615 8.5ZM11.1154 7.84615C10.7543 7.84615 10.4615 8.13889 10.4615 8.5C10.4615 8.86111 10.7543 9.15385 11.1154 9.15385C11.4765 9.15385 11.7692 8.86111 11.7692 8.5C11.7692 8.13889 11.4765 7.84615 11.1154 7.84615ZM13.0769 8.5C13.0769 8.13889 13.3697 7.84615 13.7308 7.84615C14.0918 7.84615 14.3846 8.13889 14.3846 8.5C14.3846 8.86111 14.0918 9.15385 13.7308 9.15385C13.3697 9.15385 13.0769 8.86111 13.0769 8.5ZM13.7308 10.4615C13.3697 10.4615 13.0769 10.7543 13.0769 11.1154C13.0769 11.4765 13.3697 11.7692 13.7308 11.7692C14.0918 11.7692 14.3846 11.4765 14.3846 11.1154C14.3846 10.7543 14.0918 10.4615 13.7308 10.4615ZM10.4615 11.1154C10.4615 10.7543 10.7543 10.4615 11.1154 10.4615C11.4765 10.4615 11.7692 10.7543 11.7692 11.1154C11.7692 11.4765 11.4765 11.7692 11.1154 11.7692C10.7543 11.7692 10.4615 11.4765 10.4615 11.1154ZM8.5 10.4615C8.13889 10.4615 7.84615 10.7543 7.84615 11.1154C7.84615 11.4765 8.13889 11.7692 8.5 11.7692C8.86111 11.7692 9.15385 11.4765 9.15385 11.1154C9.15385 10.7543 8.86111 10.4615 8.5 10.4615ZM5.23077 11.1154C5.23077 10.7543 5.52351 10.4615 5.88462 10.4615C6.24572 10.4615 6.53846 10.7543 6.53846 11.1154C6.53846 11.4765 6.24572 11.7692 5.88462 11.7692C5.52351 11.7692 5.23077 11.4765 5.23077 11.1154ZM3.26923 10.4615C2.90812 10.4615 2.61538 10.7543 2.61538 11.1154C2.61538 11.4765 2.90812 11.7692 3.26923 11.7692C3.63034 11.7692 3.92308 11.4765 3.92308 11.1154C3.92308 10.7543 3.63034 10.4615 3.26923 10.4615ZM2.61538 13.7308C2.61538 13.3697 2.90812 13.0769 3.26923 13.0769C3.63034 13.0769 3.92308 13.3697 3.92308 13.7308C3.92308 14.0918 3.63034 14.3846 3.26923 14.3846C2.90812 14.3846 2.61538 14.0918 2.61538 13.7308ZM5.88462 13.0769C5.52351 13.0769 5.23077 13.3697 5.23077 13.7308C5.23077 14.0918 5.52351 14.3846 5.88462 14.3846C6.24572 14.3846 6.53846 14.0918 6.53846 13.7308C6.53846 13.3697 6.24572 13.0769 5.88462 13.0769ZM7.84615 13.7308C7.84615 13.3697 8.13889 13.0769 8.5 13.0769C8.86111 13.0769 9.15385 13.3697 9.15385 13.7308C9.15385 14.0918 8.86111 14.3846 8.5 14.3846C8.13889 14.3846 7.84615 14.0918 7.84615 13.7308ZM11.1154 13.0769C10.7543 13.0769 10.4615 13.3697 10.4615 13.7308C10.4615 14.0918 10.7543 14.3846 11.1154 14.3846C11.4765 14.3846 11.7692 14.0918 11.7692 13.7308C11.7692 13.3697 11.4765 13.0769 11.1154 13.0769Z" fill="#5A5A5A"/>
</svg>
