<svg width="25" height="34" viewBox="0 0 25 34" fill="none" xmlns="http://www.w3.org/2000/svg">
<path fill-rule="evenodd" clip-rule="evenodd" d="M22.9443 6.01601C23.9862 7.76041 24.5805 9.73456 24.6747 11.7633C24.7689 13.792 24.36 15.8126 23.4843 17.6457C22.6085 19.4788 21.2931 21.0678 19.6546 22.2716C18.0161 23.4755 16.1053 24.257 14.0917 24.5469L14.0952 24.6702V26.4324H15.8604C16.3286 26.4324 16.7776 26.618 17.1086 26.9485C17.4397 27.2789 17.6257 27.7272 17.6257 28.1945C17.6257 28.6619 17.4397 29.1101 17.1086 29.4405C16.7776 29.771 16.3286 29.9567 15.8604 29.9567H14.0952V31.7188C14.0952 32.1862 13.9092 32.6344 13.5782 32.9649C13.2471 33.2953 12.7981 33.481 12.33 33.481C11.8618 33.481 11.4128 33.2953 11.0817 32.9649C10.7507 32.6344 10.5647 32.1862 10.5647 31.7188V29.9567H8.79947C8.3313 29.9567 7.88231 29.771 7.55126 29.4405C7.22022 29.1101 7.03424 28.6619 7.03424 28.1945C7.03424 27.7272 7.22022 27.2789 7.55126 26.9485C7.88231 26.618 8.3313 26.4324 8.79947 26.4324H10.5647V24.6702C10.5647 24.6279 10.5647 24.5874 10.5682 24.5469C7.4812 24.0953 4.67944 22.495 2.72515 20.0672C0.770865 17.6393 -0.191337 14.5635 0.0316205 11.4569C0.254578 8.35027 1.6462 5.44278 3.92724 3.31781C6.20828 1.19285 9.20996 0.00763752 12.33 9.15531e-06C15.4343 -0.00376973 18.4258 1.16239 20.706 3.26529C21.2708 3.74807 22.5 5.48098 22.9461 6.01601H22.9443ZM18.571 18.5653C16.9158 20.2176 14.6708 21.1459 12.33 21.1459C9.9891 21.1459 7.74412 20.2176 6.08889 18.5653C4.43366 16.9129 3.50376 14.6719 3.50376 12.3351C3.50376 9.99834 4.43366 7.75728 6.08889 6.10494C7.74412 4.4526 9.9891 3.52432 12.33 3.52432C14.6708 3.52432 16.9158 4.4526 18.571 6.10494C20.2263 7.75728 21.1562 9.99834 21.1562 12.3351C21.1562 14.6719 20.2263 16.9129 18.571 18.5653Z" fill="#607B5C"/>
</svg>
