<svg width="30" height="59" viewBox="0 0 30 59" fill="none" xmlns="http://www.w3.org/2000/svg">
<path d="M10.3157 58.2569V47.0519L0.0889282 41.8051V52.6544L10.3157 58.2569Z" fill="white"/>
<path d="M29.2575 13.9705L10.3157 16.3715V29.1772L29.2575 26.5094V13.9705Z" fill="white"/>
<path d="M10.3157 29.1772V16.3715L0.0889282 11.2137V23.7526L10.3157 29.1772Z" fill="white"/>
<path d="M10.3157 47.0519V29.1772L0.0889282 23.7526V41.8051L10.3157 47.0519Z" fill="#78B3D5"/>
<path d="M10.3157 47.0519L29.2575 44.5619V26.5094L10.3157 29.1772V47.0519Z" fill="#78B3D5"/>
<path d="M6.40285 4.63297L0.0889282 11.2137L7.47 7.8344L6.40285 4.63297Z" fill="#6898BB"/>
<path d="M0.0889282 11.2137L10.3157 16.3715L7.47 7.8344L0.0889282 11.2137Z" fill="#77B3D5"/>
<path d="M29.2575 13.9705L25.5225 3.03226L6.40285 4.63297L7.47 7.8344L10.3157 16.3715L29.2575 13.9705Z" fill="#77B3D5"/>
<path d="M6.40285 4.63297L25.5225 3.03226V0.720114C25.5225 0.0963452 24.8111 0.0645221 24.3664 0.0976141C19.0603 0.482971 8.25257 1.27147 7.47 1.34261C6.68742 1.34261 6.4325 1.87619 6.40285 2.14297V4.63297Z" fill="#77B3D5"/>
<path d="M10.3157 58.2569L29.2575 55.5001V44.5619L10.3157 47.0519V58.2569Z" fill="white"/>
<path d="M10.4046 47.1298V58.154L29.1686 55.4231V44.6633L10.4046 47.1298ZM0.177857 52.6016L10.2268 58.1066V47.1062L0.177857 41.9506V52.6016ZM10.4046 29.2543V46.9504L29.1686 44.4839V26.6117L10.4046 29.2543ZM0.177857 41.7507L10.2268 46.9063V29.2307L0.177857 23.9004V41.7507ZM10.4046 16.4498V29.0747L29.1686 26.4321V14.0714L10.4046 16.4498ZM0.177857 23.6991L10.2268 29.0294V16.4264L0.177857 11.3582V23.6991ZM6.52287 4.71215L10.377 16.2742L29.138 13.8961L25.4607 3.12672L6.52287 4.71215ZM0.294055 11.2175L10.163 16.1949L7.41685 7.95647L0.294055 11.2175ZM0.475907 10.9387L7.36022 7.78678L6.36499 4.80073L0.475907 10.9387ZM25.4336 0.72009C25.4335 0.582323 25.3947 0.48382 25.3354 0.411272C25.2751 0.337487 25.1882 0.283887 25.0818 0.246615C24.8665 0.171173 24.5928 0.169985 24.373 0.186345C19.066 0.571767 8.25949 1.36012 7.47799 1.43117L7.47399 1.43152H7.47C7.10091 1.43152 6.86475 1.55659 6.71723 1.70542C6.56878 1.85521 6.50543 2.03413 6.49178 2.14955V4.5362L25.4336 2.95042V0.72009ZM25.6114 3.01729L29.3417 13.9418L29.3464 13.9557V55.577L10.3286 58.3449L10.299 58.3493L0 52.7072V11.1781L6.31392 4.59734V2.13808L6.31445 2.13322C6.33128 1.98173 6.41033 1.76244 6.59096 1.5802C6.7736 1.39593 7.05542 1.25422 7.46756 1.25366C8.29569 1.17927 19.0669 0.393411 24.3598 0.00900884C24.5846 -0.0077224 24.889 -0.00946262 25.1405 0.0786579C25.2676 0.123161 25.3863 0.192372 25.4733 0.298895C25.5613 0.406674 25.6114 0.546089 25.6114 0.72009V3.01729Z" fill="black"/>
<path d="M17.0743 11.4789L20.3646 15.125L28.8128 14.0578L22.1432 7.38818L17.0743 11.4789Z" fill="#6B96BE"/>
<path d="M21.7875 9.07783C21.7875 10.6986 20.4736 12.0125 18.8529 12.0125C17.2321 12.0125 15.9182 10.6986 15.9182 9.07783C15.9182 7.45707 17.2321 6.14319 18.8529 6.14319C20.4736 6.14319 21.7875 7.45707 21.7875 9.07783Z" fill="#D9D9D9"/>
<path d="M22.3211 8.45533C22.3211 10.027 21.047 11.301 19.4754 11.301C17.9037 11.301 16.6296 10.027 16.6296 8.45533C16.6296 6.88369 17.9037 5.60962 19.4754 5.60962C21.047 5.60962 22.3211 6.88369 22.3211 8.45533Z" fill="white"/>
<path d="M15.2339 38.7381L25.8421 37.3303C25.3113 35.6636 24.5759 33.5648 24.1885 33.1773C24.6331 32.7327 26.5006 30.9541 26.2338 29.5313C25.2556 29.887 24.6332 30.2427 23.566 32.1991C23.2103 31.7841 22.2855 30.9363 21.4317 30.8652L20.5424 30.8652C20.1274 30.8652 19.0485 30.9364 18.0525 31.2209C17.7857 31.3691 17.2521 31.6833 17.2521 31.7545C16.9854 31.9027 16.3451 32.4126 15.9182 33.2663C15.5329 32.7031 14.3175 31.5767 12.5389 31.5767C12.9836 32.6438 13.6061 33.4442 15.2957 34.3335C15.2957 35.0748 15.2629 37.1101 15.2339 38.7381Z" fill="white"/>
<path d="M15.2068 40.2028L26.2338 38.602C26.1285 38.2465 25.9937 37.806 25.8421 37.3303L15.2339 38.7381C15.2239 39.2974 15.2144 39.8086 15.2068 40.2028Z" fill="white"/>
<path d="M21.4317 30.8652L21.4317 29.798C21.2835 29.6498 20.8981 29.4423 20.5424 29.798L20.5424 30.8652L21.4317 30.8652Z" fill="#7D3B09"/>
<path d="M18.0525 31.2209L18.0525 30.3317C17.9636 30.1538 17.679 29.9048 17.2521 30.3317L17.2521 31.7545C17.2521 31.6833 17.7857 31.3691 18.0525 31.2209Z" fill="#7D3B09"/>
<path d="M23.843 37.5957C25.2062 37.4148 26.458 38.3732 26.6389 39.7365C26.8198 41.0997 25.8613 42.3515 24.4981 42.5324L17.9746 43.3981C16.6113 43.579 15.3596 42.6205 15.1786 41.2573C14.9977 39.8941 15.9562 38.6423 17.3194 38.4614L23.843 37.5957Z" fill="#E6514F"/>
<path d="M19.2975 41.0032C19.2975 41.6908 18.7401 42.2482 18.0525 42.2482C17.3649 42.2482 16.8075 41.6908 16.8075 41.0032C16.8075 40.3156 17.3649 39.7582 18.0525 39.7582C18.7401 39.7582 19.2975 40.3156 19.2975 41.0032Z" fill="#5E1F19"/>
<path d="M24.9889 40.1139C24.9889 40.8015 24.4315 41.3589 23.7439 41.3589C23.0563 41.3589 22.4989 40.8015 22.4989 40.1139C22.4989 39.4263 23.0563 38.8689 23.7439 38.8689C24.4315 38.8689 24.9889 39.4263 24.9889 40.1139Z" fill="#5E1F19"/>
<path d="M18.5861 34.2446C18.5861 34.7358 18.1879 35.1339 17.6968 35.1339C17.2056 35.1339 16.8075 34.7358 16.8075 34.2446C16.8075 33.7535 17.2056 33.3553 17.6968 33.3553C18.1879 33.3553 18.5861 33.7535 18.5861 34.2446Z" fill="#282424"/>
<path d="M18.2303 34.0668C18.2303 34.2632 18.0711 34.4225 17.8746 34.4225C17.6782 34.4225 17.5189 34.2632 17.5189 34.0668C17.5189 33.8703 17.6782 33.7111 17.8746 33.7111C18.0711 33.7111 18.2303 33.8703 18.2303 34.0668Z" fill="white"/>
<path d="M23.0325 33.7111C23.0325 34.2022 22.6343 34.6003 22.1432 34.6003C21.6521 34.6003 21.2539 34.2022 21.2539 33.7111C21.2539 33.2199 21.6521 32.8218 22.1432 32.8218C22.6343 32.8218 23.0325 33.2199 23.0325 33.7111Z" fill="#282424"/>
<path d="M22.6768 33.5332C22.6768 33.7297 22.5175 33.8889 22.321 33.8889C22.1246 33.8889 21.9653 33.7297 21.9653 33.5332C21.9653 33.3367 22.1246 33.1775 22.321 33.1775C22.5175 33.1775 22.6768 33.3367 22.6768 33.5332Z" fill="white"/>
</svg>
