<svg width="62" height="59" viewBox="0 0 62 59" fill="none" xmlns="http://www.w3.org/2000/svg">
<path d="M60.9191 17.9411C60.1902 18.3885 58.4076 18.8407 57.5212 17.3615C57.137 16.7514 56.5813 15.2383 57.3141 14.1889C56.2801 15.2261 56.339 17.27 57.0777 18.0326C58.6379 19.6433 60.2887 18.6427 60.9191 17.9411Z" fill="#F0793B"/>
<path d="M57.5212 17.3615C58.4076 18.8407 60.1902 18.3885 60.9191 17.9411C61.3033 17.4835 61.3624 17.575 61.717 16.5989C62.0715 15.6227 61.5692 14.311 60.9191 13.8229C60.1213 13.1518 58.2301 12.8772 57.3141 14.1889C56.5813 15.2383 57.137 16.7514 57.5212 17.3615Z" fill="#FFAE43"/>
<path d="M59.2429 13.2624C59.9488 13.251 60.641 13.4861 61.0543 13.8227L61.0859 13.8463C61.4107 14.0971 61.6944 14.536 61.8563 15.0297C62.0235 15.5396 62.0624 16.1128 61.8785 16.6039C61.6976 17.0869 61.591 17.3089 61.4793 17.467C61.4234 17.5462 61.3666 17.6088 61.3 17.6793C61.2333 17.7498 61.1567 17.8284 61.0593 17.9409L61.059 17.9413L61.0587 17.9417C60.734 18.2922 60.1469 18.7173 59.439 18.8539C58.729 18.9908 57.9001 18.8368 57.0974 18.033C56.7126 17.6476 56.5084 16.9439 56.5312 16.2114C56.5539 15.4788 56.8038 14.7094 57.3369 14.1894C57.811 13.5324 58.5362 13.2738 59.2429 13.2624ZM57.1718 14.4655C56.7939 14.9546 56.6106 15.5953 56.5914 16.2132C56.569 16.9368 56.7715 17.6213 57.1401 17.9904C57.9286 18.78 58.7372 18.9278 59.4276 18.7946C60.0251 18.6794 60.536 18.353 60.8694 18.045C60.4856 18.2316 59.9321 18.3929 59.3633 18.3794C58.6953 18.3634 58.0043 18.106 57.5458 17.3642L57.527 17.335C57.3329 17.0262 57.1035 16.512 57.0085 15.9464C56.927 15.4603 56.9443 14.9331 57.1718 14.4655ZM59.2439 13.3227C58.55 13.3339 57.8444 13.5877 57.3843 14.2268C57.0171 14.7369 56.9715 15.3615 57.068 15.9365C57.1615 16.4934 57.3877 17 57.578 17.3027L57.5963 17.3313L57.5967 17.3319H57.5966C58.0421 18.053 58.712 18.3034 59.3648 18.319C60.0164 18.3346 60.649 18.1156 61.0171 17.8976C61.114 17.7858 61.1909 17.707 61.2563 17.6378C61.3224 17.5677 61.3768 17.5077 61.4301 17.4322C61.5369 17.281 61.6413 17.0654 61.822 16.5827C61.9998 16.1081 61.9633 15.5496 61.799 15.0485C61.6346 14.5472 61.3438 14.1082 61.0188 13.8715L61.0182 13.8709L61.0175 13.8705C60.617 13.5437 59.9387 13.3115 59.2439 13.3227Z" fill="black"/>
<path d="M55.1854 26.8559C55.3845 26.7984 55.5989 26.8878 55.6786 27.0791C57.4662 31.3703 57.3908 42.098 45.7656 51.9053C27.36 63.6656 12.8433 51.4301 9.25119 47.9258C4.41232 42.5801 -3.86431 29.5843 6.60909 13.4761C9.5184 9.25877 17.3556 1.89378 26.5881 1.74529C26.8553 1.71559 27.3956 1.88784 27.4194 2.81442C27.4772 5.07145 28.6959 8.07095 32.6739 8.66491C33.1389 8.69461 33.9207 9.03317 33.327 10.1498C31.813 15.733 35.8206 25.8897 47.2796 23.7218C47.7249 23.5139 48.6808 23.2882 48.7046 24.4049C48.9936 26.5442 50.9986 28.0644 55.1854 26.8559Z" fill="#FFAE43"/>
<path d="M45.7656 51.9053C27.36 63.6656 12.8433 51.4301 9.25119 47.9258C4.41232 42.5801 -3.86431 29.5843 6.60909 13.4761C-5.83552 28.04 2.57174 43.9561 8.33094 50.0936C18.0681 60.5473 33.9207 62.2401 45.7656 51.9053Z" fill="#F0793B"/>
<path d="M44.4297 6.14058C45.2214 5.37833 46.2168 3.29551 43.8657 1.06223C41.7579 -0.749391 39.5908 0.141579 38.9971 0.913707C38.4034 1.80467 38.344 4.26958 39.5908 5.4278C40.8167 6.76614 43.4473 6.87021 44.4297 6.14058Z" fill="#FFAE43"/>
<path d="M44.4297 6.14058C43.4473 6.87021 40.8167 6.76614 39.5908 5.4278C38.344 4.26958 38.4034 1.80467 38.9971 0.913707C37.0378 3.11134 37.869 5.10114 38.9971 6.28906C41.5383 8.18973 43.6777 6.98202 44.4297 6.14058Z" fill="#F0793B"/>
<path d="M26.5005 1.74352C26.6418 1.72839 26.8517 1.76633 27.0297 1.92698C27.2091 2.08883 27.3524 2.37189 27.3644 2.84049C27.3933 3.96331 27.7118 5.26988 28.5181 6.36907C29.3237 7.4673 30.6177 8.36055 32.6023 8.6563C32.8392 8.67165 33.1606 8.76529 33.3474 9.002C33.5369 9.24206 33.5799 9.61835 33.2813 10.1801C32.5266 12.9596 33.1495 16.8793 35.3926 19.8343C37.6343 22.7874 41.4956 24.7784 47.2233 23.699C47.4485 23.5948 47.8044 23.4848 48.1102 23.5434C48.2651 23.5731 48.4081 23.6462 48.5134 23.7856C48.6182 23.9243 48.6834 24.1256 48.6897 24.4076C48.8336 25.4668 49.4028 26.3707 50.4548 26.8615C51.5085 27.3532 53.0513 27.4326 55.1448 26.83C55.3572 26.7689 55.5884 26.8635 55.6747 27.0701C57.4713 31.3704 57.3903 42.1005 45.735 51.905C33.8551 62.2404 17.9545 60.5473 8.18852 50.093V50.0929C5.30043 47.024 1.74901 41.5113 0.479244 34.9448C-0.79073 28.3772 0.221927 20.7559 6.46166 13.4739C7.92133 11.3646 10.6152 8.47008 14.1011 6.08398C17.5874 3.69752 21.8682 1.81806 26.5005 1.74352ZM6.21216 13.8614C0.248513 21.0221 -0.708999 28.4865 0.537683 34.9336C1.78515 41.3848 5.23979 46.8179 8.09639 49.9072L8.23197 50.0525L8.23203 50.0526C17.894 60.3956 33.5712 62.1441 45.3917 52.1214C36.3006 57.7836 28.1693 57.644 21.8493 55.6416C15.4521 53.6148 10.9125 49.6803 9.11153 47.9283L9.11083 47.9277L9.11025 47.9271C6.68422 45.2547 3.39578 40.6695 2.02684 34.7382C0.679526 28.9005 1.19212 21.761 6.21216 13.8614ZM26.9898 1.97102C26.8251 1.82234 26.6315 1.78868 26.5052 1.80269L26.5038 1.80286H26.5024C21.8851 1.87691 17.6153 3.75039 14.1347 6.13289C10.6541 8.51539 7.96504 11.4054 6.5097 13.509C1.26799 21.5479 0.719222 28.8081 2.08481 34.7249C3.45057 40.6424 6.73175 45.2184 9.15364 47.8864C10.9519 49.6355 15.4834 53.5624 21.8673 55.5851C28.2502 57.6074 36.4864 57.7267 45.6977 51.8587C57.3349 42.0688 57.405 31.366 55.6198 27.0929C55.5464 26.9172 55.3479 26.8333 55.1613 26.887C53.0602 27.4918 51.5013 27.4154 50.4295 26.9153C49.3565 26.4146 48.7765 25.4912 48.6305 24.4139L48.6304 24.4122L48.6303 24.4106C48.6244 24.1357 48.5611 23.9474 48.4659 23.8214C48.371 23.6958 48.2423 23.6291 48.099 23.6017C47.8101 23.5464 47.4662 23.6515 47.245 23.7544L47.2416 23.756L47.2379 23.7567C41.487 24.8416 37.6016 22.8425 35.3452 19.8701C33.0905 16.8999 32.4638 12.9594 33.2248 10.1615L33.2256 10.1583L33.2272 10.1553C33.5216 9.60329 33.4703 9.25364 33.3007 9.03874C33.1285 8.82049 32.8262 8.73004 32.5972 8.71546L32.596 8.7154L32.5947 8.71523C30.5945 8.41743 29.2857 7.51594 28.4701 6.40413C27.6551 5.29305 27.3341 3.97394 27.305 2.842C27.2932 2.38499 27.154 2.1192 26.9898 1.97102ZM38.911 0.923828C39.512 0.145358 41.673 -0.738307 43.7816 1.02616L43.8314 1.06834L43.832 1.06881L43.8325 1.06933C45.0156 2.18987 45.3596 3.27598 45.305 4.1803C45.2505 5.08257 44.7994 5.79944 44.3986 6.18463C44.0177 6.60912 43.2881 7.12415 42.3331 7.29469C41.3763 7.46556 40.1956 7.29019 38.9164 6.33616L38.9145 6.33465L38.9127 6.33286C38.3448 5.73651 37.8498 4.93714 37.7447 4.00902C37.6396 3.08003 37.9256 2.02645 38.911 0.923828ZM38.7736 1.17589C37.9449 2.18981 37.7076 3.15177 37.8039 4.00235C37.9069 4.9127 38.3926 5.69992 38.9541 6.29009C40.22 7.23351 41.3834 7.40403 42.3226 7.23629C43.1336 7.09145 43.7792 6.69399 44.1808 6.32069C43.6574 6.59464 42.8588 6.70135 42.0414 6.61221C41.102 6.50978 40.1285 6.14792 39.5079 5.47277C38.8764 4.88719 38.5777 3.9744 38.5105 3.09939C38.4542 2.36652 38.5599 1.65403 38.7736 1.17589ZM43.7919 1.11273C41.6941 -0.684523 39.5436 0.202132 38.9584 0.95987C38.6665 1.39739 38.5032 2.2273 38.5699 3.09487C38.6365 3.96235 38.9323 4.85874 39.5493 5.43024L39.5503 5.43111L39.551 5.43198C40.1586 6.09335 41.1166 6.45168 42.0478 6.55322C42.979 6.65476 43.874 6.49857 44.3578 6.14141C44.7496 5.76462 45.1922 5.06138 45.2456 4.17677C45.2991 3.29271 44.9641 2.22308 43.7919 1.11273Z" fill="black"/>
<path d="M44.319 16.811C43.7468 17.1094 42.4009 17.3362 41.5959 16.095C41.2999 15.6773 40.7671 14.3944 41.4479 13.4695C41.0039 13.738 40.2303 15.7632 41.3887 16.8409C42.5432 17.9149 43.7863 17.1989 44.319 16.811Z" fill="#F0793B"/>
<path d="M41.5959 16.095C42.4009 17.3362 43.7468 17.1094 44.319 16.811C44.7334 16.5425 45.1417 15.7071 45.2363 15.0806C45.4021 13.9827 44.5161 13.1811 44.0524 12.9325C43.5197 12.7236 42.1286 12.5446 41.4479 13.4695C40.7671 14.3944 41.2999 15.6773 41.5959 16.095Z" fill="#FFAE43"/>
<path d="M42.715 12.6107C43.2149 12.5659 43.6969 12.6583 43.9782 12.7627L44.0048 12.7728L44.0065 12.7735L44.008 12.7743C44.2492 12.9035 44.5983 13.1751 44.866 13.5563C45.134 13.9379 45.3218 14.4313 45.2355 15.0025C45.1865 15.3267 45.0566 15.7036 44.8858 16.034C44.7154 16.3635 44.5018 16.6514 44.2831 16.793C44.0089 16.9923 43.5507 17.2769 43.011 17.3732C42.4688 17.4701 41.8455 17.3766 41.247 16.8203C40.6437 16.2596 40.5455 15.4542 40.6528 14.7592C40.7066 14.4113 40.812 14.0893 40.9328 13.8367C40.9933 13.7104 41.0578 13.6009 41.1221 13.514C41.1841 13.4299 41.2471 13.3653 41.3072 13.3275C41.6626 12.8486 42.2005 12.6568 42.715 12.6107ZM41.1578 13.5683C41.1005 13.6485 41.0425 13.7482 40.9875 13.8631C40.8691 14.1104 40.7655 14.4266 40.7127 14.7685C40.607 15.4531 40.7056 16.2341 41.288 16.7755C41.8712 17.3175 42.4748 17.407 43.0005 17.3132C43.3859 17.2444 43.7299 17.0765 43.9931 16.9142C43.7072 17.009 43.3411 17.0678 42.9589 17.0219C42.4306 16.9584 41.8721 16.695 41.4549 16.0529L41.4253 16.0096C41.2746 15.7805 41.0815 15.3652 40.9991 14.8926C40.9251 14.4683 40.9399 13.9948 41.1578 13.5683ZM43.9812 12.829C43.7124 12.7241 43.2258 12.6262 42.7204 12.6715C42.2143 12.7168 41.6938 12.9052 41.3524 13.3686C41.0107 13.8324 40.9725 14.3873 41.0588 14.882C41.1397 15.3461 41.3295 15.7534 41.4756 15.9755L41.5042 16.0175L41.5045 16.0179L41.5049 16.0185C41.9115 16.6448 42.4535 16.8997 42.9661 16.9613C43.4791 17.0229 43.9631 16.8907 44.2513 16.741C44.4564 16.6077 44.6635 16.3317 44.832 16.0058C45.0003 15.6803 45.1278 15.3097 45.1756 14.9933C45.259 14.4417 45.0781 13.964 44.8165 13.5915C44.5552 13.2194 44.2146 12.9544 43.9812 12.829Z" fill="black"/>
<path d="M25.861 43.516C25.861 44.2942 25.2301 44.9251 24.4519 44.9251C23.6737 44.9251 23.0428 44.2942 23.0428 43.516C23.0428 42.7378 23.6737 42.1069 24.4519 42.1069C25.2301 42.1069 25.861 42.7378 25.861 43.516Z" fill="#744201"/>
<path d="M17.5722 13.6764C17.5722 14.5462 16.83 15.2513 15.9145 15.2513C14.9989 15.2513 14.2567 14.5462 14.2567 13.6764C14.2567 12.8067 14.9989 12.1016 15.9145 12.1016C16.83 12.1016 17.5722 12.8067 17.5722 13.6764Z" fill="#744201"/>
<path d="M12.8765 35.309C13.8587 35.3386 15.8409 34.8459 15.9124 32.6373C16.0017 29.8766 13.1742 29.372 12.7575 29.3423C10.9717 29.3423 9.66212 30.6496 9.45376 32.2514C9.33471 34.5668 11.5669 35.309 12.8765 35.309Z" fill="#744201"/>
<path d="M12.8427 29.3423L12.8438 29.3423C13.0591 29.3573 13.8885 29.4906 14.6538 29.9641C15.4208 30.4387 16.1239 31.2559 16.0781 32.6352C16.0414 33.7389 15.5139 34.4163 14.8685 34.8128C14.2248 35.2084 13.4652 35.3238 12.9617 35.309V35.3089C12.2917 35.3087 11.3861 35.124 10.662 34.65C9.93601 34.1747 9.39277 33.4086 9.45388 32.2506L9.45394 32.2495L9.45411 32.2484C9.66768 30.6488 11.0105 29.3423 12.8416 29.3423H12.8427ZM12.8402 29.4011C11.0429 29.4018 9.72472 30.6831 9.51426 32.2546C9.4547 33.3887 9.98524 34.136 10.6958 34.6012C11.4081 35.0675 12.3018 35.2502 12.9626 35.2502H12.9635C13.4581 35.2647 14.205 35.1509 14.8362 34.7631C15.4657 34.3763 15.9817 33.7163 16.0177 32.6333C16.0626 31.279 15.3743 30.4797 14.6213 30.0137C13.8675 29.5472 13.0495 29.4158 12.8402 29.4011Z" fill="black"/>
<path d="M43.2596 41.9412C44.5392 41.8125 47.1579 40.836 47.3959 37.96C47.634 35.0841 45.1344 33.8501 43.8548 33.5926C41.5933 33.2955 39.5519 35.1375 39.3614 37.6332C39.1234 40.7528 40.9386 41.7927 43.2596 41.9412Z" fill="#744201"/>
<path d="M25.0779 29.6411C26.7146 29.6213 30.0414 28.5715 30.2557 24.5309C30.4045 22.57 28.3215 19.0642 25.0779 19.0642C21.8343 19.0642 19.4835 21.1736 19.2455 24.1447C19.0074 27.1157 21.5368 29.7897 25.0779 29.6411Z" fill="#744201"/>
<path d="M39.3191 37.6124C39.5087 35.1288 41.528 33.2852 43.7831 33.5485L43.8364 33.5552L43.8374 33.5553L43.8384 33.5555C44.4811 33.6847 45.4293 34.0587 46.1875 34.7615C46.9468 35.4651 47.5155 36.4985 47.3958 37.943C47.2763 39.3871 46.5582 40.3551 45.7098 40.9774C44.8623 41.5992 43.8845 41.8763 43.2417 41.941L43.2392 41.9412L43.2367 41.941C42.0756 41.8668 41.0356 41.5695 40.3157 40.8959C39.5947 40.2214 39.1998 39.1743 39.3191 37.6124ZM43.8279 33.6138C41.5912 33.3206 39.5673 35.1419 39.3783 37.6169C39.26 39.1665 39.652 40.1938 40.3563 40.8527C41.0613 41.5122 42.0842 41.8076 43.2382 41.8817C43.8723 41.8175 44.8381 41.5434 45.6746 40.9297C46.5114 40.3159 47.2187 39.3626 47.3366 37.9382C47.4546 36.5142 46.8949 35.498 46.1471 34.8049C45.3988 34.1114 44.462 33.7416 43.8279 33.6138ZM25.0953 19.0642C26.7251 19.0642 28.0617 19.9446 28.9713 21.068C29.8799 22.1904 30.3664 23.5604 30.2917 24.5479L30.2918 24.5479C30.1844 26.5721 29.2963 27.8496 28.2284 28.6227C27.1621 29.3946 25.9181 29.6628 25.0965 29.6729L25.0965 29.6729C21.5468 29.8218 19.0064 27.1416 19.2455 24.1588C19.4844 21.1788 21.8444 19.0642 25.0953 19.0642ZM25.0953 19.1235C21.8728 19.1235 19.541 21.2168 19.3047 24.1635C19.0687 27.1073 21.5764 29.7611 25.094 29.6137H25.095C25.9066 29.6038 27.1386 29.3385 28.1936 28.5748C29.2473 27.8119 30.1261 26.5507 30.2325 24.5448L30.2325 24.5441C30.306 23.5759 29.8275 22.22 28.925 21.1053C28.0232 19.9914 26.7022 19.1235 25.0953 19.1235Z" fill="black"/>
</svg>
