<svg width="14" height="17" viewBox="0 0 14 17" fill="none" xmlns="http://www.w3.org/2000/svg">
<path d="M10.0473 17C13.4783 15.037 14.3816 13.1789 13.8651 10.6413C13.4839 8.76742 12.2354 7.24288 12.1157 5.37264C11.5824 6.35784 11.3596 7.06826 11.3 8.09779C9.60385 5.98818 8.483 3.06774 8.41663 0C8.41663 0 3.99878 2.63514 3.70889 6.61555C3.32857 5.79512 3.13712 4.49208 3.51744 3.64758C2.3765 4.49212 -4.30154 11.9894 4.42198 17C2.78187 13.7581 3.99886 9.38384 6.84654 7.36358C6.65636 8.23226 6.98979 11.4722 8.24962 12.8959C7.90054 10.5171 8.58175 9.5112 8.58175 9.5112C8.58175 9.5112 8.81555 10.8436 9.7227 12.1896C10.5511 13.4188 11.125 14.7233 10.0473 17Z" fill="#5A5A5A"/>
</svg>
